<svg xmlns="http://www.w3.org/2000/svg" xmlns:xlink="http://www.w3.org/1999/xlink" width="97" height="22" viewBox="0 0 97 22">
  <defs>
    <clipPath id="clip-path">
      <rect id="Rectangle_255" data-name="Rectangle 255" width="97" height="22" transform="translate(0.288 -0.386)" fill="#fff"/>
    </clipPath>
  </defs>
  <g id="Aplazo" transform="translate(-0.288 0.386)">
    <g id="Group_506" data-name="Group 506" transform="translate(0 0)" clip-path="url(#clip-path)">
      <path id="Path_207" data-name="Path 207" d="M138.072,8.941c-1.018.074-3.342.361-4.007.458-.65-3.583-2.451-6.131-5.079-6.731-5.354-1.227-10.757,5.963-14.451,19.222l2.759.765c3.549-12.74,8.2-17.854,11.053-17.2,1.305.3,2.434,1.928,2.9,4.462-6.824,1.564-8.243,4.536-8.083,6.963a5.272,5.272,0,0,0,2.912,4.488,5.556,5.556,0,0,0,5.393-.18,5.523,5.523,0,0,0,2.423-4.235s.377-2.735.407-3.85a25.908,25.908,0,0,0-2.883.576c-.048.763-.35,2.814-.35,2.814-.182,1.111-.325,1.766-1.144,2.291a2.712,2.712,0,0,1-2.557.034,2.408,2.408,0,0,1-1.345-2.124c-.109-1.672,1.828-3.029,5.448-3.906a.285.285,0,0,0,.033-.01,67.874,67.874,0,0,1,6.848-.995Z" transform="translate(-41.738 -1.485)" fill="#fff"/>
      <path id="Path_208" data-name="Path 208" d="M96.809,8.363a5.9,5.9,0,1,0,5.915,5.9,5.907,5.907,0,0,0-5.915-5.9m0,9.254a3.353,3.353,0,1,1,3.36-3.353,3.357,3.357,0,0,1-3.36,3.353" transform="translate(-33.123 -3.61)" fill="#fff"/>
      <rect id="Rectangle_254" data-name="Rectangle 254" width="2.831" height="16.708" transform="translate(28.132 -0.562)" fill="#fff"/>
      <path id="Path_209" data-name="Path 209" d="M8.759,8.558v.549A5.9,5.9,0,1,0,5.915,20.165a5.805,5.805,0,0,0,2.844-.749v.548H11.59V8.558ZM5.916,17.617a3.353,3.353,0,1,1,3.361-3.353,3.357,3.357,0,0,1-3.361,3.353" transform="translate(0 -3.61)" fill="#fff"/>
      <path id="Path_210" data-name="Path 210" d="M28.221,8.363a5.871,5.871,0,0,0-2.844.744V8.558H22.546V25.293h2.831V19.414a5.8,5.8,0,0,0,2.844.749,5.9,5.9,0,1,0,0-11.8m0,9.254a3.353,3.353,0,1,1,3.361-3.353,3.357,3.357,0,0,1-3.361,3.353" transform="translate(-8.216 -3.61)" fill="#fff"/>
      <path id="Path_211" data-name="Path 211" d="M83.814,8.621H73.475v2.362h5.971l-6.192,9.1H83.545V17.718H77.626Z" transform="translate(-26.695 -3.704)" fill="#fff"/>
      <path id="Path_212" data-name="Path 212" d="M60.988,8.558v.549a5.9,5.9,0,1,0-2.844,11.059,5.8,5.8,0,0,0,2.844-.749v.548h2.831V8.558Zm-2.844,9.059A3.353,3.353,0,1,1,61.5,14.264a3.357,3.357,0,0,1-3.361,3.353" transform="translate(-19.033 -3.61)" fill="#fff"/>
    </g>
  </g>
</svg>
