<svg xmlns="http://www.w3.org/2000/svg" id="i-shoe-style-lowland" viewBox="0 0 190.4 74.8"><path d="M189.4 59.7c-1.2-4-.9-8.2-.9-8.2l-.5.1c-.1-.7 0-1.6-1.2-1.5h-.1c-1.2-2.4-4.5-6.1-13.7-6.1-.1.1-.4.2-.9.4-14.3-1.4-25-3.8-29.2-4.9.2-.4-.1-.4-.4-.5-.3-.1-6.4-1.8-6.4-1.8s-.2.1-.5.2c-15-6.1-31.6-16.3-43.4-24.3l.4-.5-1.1-.8C88.7 9.2 77.6.3 74.9 1.2l-2 2.4c.3-.2.8-.2 1.4 0-2.1 2.2-6.1 7.1-5.1 12.3-1.9.5-3.5 1.4-4.9 2.3-33.1 20.8-40.9-2-53.6-2.5-1.1 0-2.4 1-1.7 2.4v.1h-.1c-2.6.7-1.8 9.2-2.9 15h-.3l-.2.6C4.3 36 2.1 46.3 3.9 53.9c-1 0-1.2.4-1.2 1.8h-1s1.1 3.1 1.4 7.7v.4c.1 2.1.1 4.4-.3 6.8.1.6.6 1.4 1.6 2 .7.5 1.6.9 3 1 .4.1.9.1 1.4.1h110.3c17.8.1 35.8-.5 65.6-8.4 2-.5 4.4-1.8 4.6-4.3.2-.5.2-.9.1-1.3z" fill="#fff"></path><path d="M189.9 59.5c-1.1-3.7-.9-7.7-.9-8v-.7l-.6.1c-.1-.6-.3-1.4-1.5-1.4-.3-.6-.7-1.2-1.3-1.8-1.8-1.9-5.4-4.3-12.7-4.3h-.2l-.2.2c-.1.1-.3.1-.5.2-13.7-1.3-24-3.6-28.6-4.8v-.1c-.1-.3-.5-.5-.7-.5h-.1c-.3-.1-5.4-1.5-6.4-1.8h-.2s-.2.1-.4.1c-2.5-1-5-2.1-7.5-3.3.1-.4 0-.7-.1-1.1-.3-.7-1.1-1-1.9-1.3-.3-.1-.6-.4-1-.6-.6-.4-1.1-.8-1.5-.8-.5 0-.9.4-1.2.9-1-.5-2-1-3-1.6.2-1.7-1.8-2.2-2.5-2.4-.2-.1-.6-.3-1-.6-.6-.4-1.1-.7-1.6-.7-.3 0-.5.2-.8.4-1.1-.7-2.3-1.3-3.4-2 .1-1.4-.8-2.6-2.5-3.1-.3-.1-.7-.4-1-.7-.6-.5-1.2-.9-1.7-.8-.3.1-.6.3-1 .7-.8-.5-1.6-1-2.3-1.5 0-1.3-.9-2.4-2.5-2.9-.2-.1-.4-.3-.6-.5-.5-.5-1.1-1.2-2.1-1-.3 0-.5.2-.8.5-.8-.6-1.7-1.1-2.5-1.6l.3-.5-1.5-1.1C90.1 9.8 78.2-.3 74.7.7h-.2l-2 2.4-.2.3-.1.1c-.2.4-.2.8.1 1.5-2.1 2.5-4.4 6.5-3.8 10.6-1.8.5-3.4 1.4-4.6 2.2-23 14.4-33.6 7.6-42.2 2.2-3.7-2.3-7.2-4.6-11.1-4.7-.9 0-1.7.5-2.2 1.2-.3.5-.3 1-.2 1.6-1.6 1-1.8 4.4-2.1 8.6-.1 2.1-.3 4.3-.6 6.2l-.2.1-.3.7C3.7 36 1.7 45.9 3.2 53.4c-.8.2-1 .8-1.1 1.7H.9l.3.7s.9 2.6 1.3 6.5c.2 2.2.2 4.7-.1 7.4v.4H2l.2.5v.1s.1.4.4.9c.2.4.6.8 1.1 1.2.1.2.2.2.4.3.8.5 1.8.9 3.1 1h114.6c16.7 0 34.6-.9 63-8.4 2.9-.8 4.6-2.4 5-4.6.2-.4.3-1 .1-1.6zM172.1 45c.4-.1.8-.3 1-.4 2.9 0 5.2.4 7 1 3.2 1.1 4.9 2.8 5.8 4.2-4.8 1.2-31.2 7.9-55.4 8.2-7.2.1-15.1-.1-23.3-.4 3.2-2.5 10.6-7.8 16.1-8.7.4-.1.7-.1 1.1-.1h.2c.8 0 1.6.1 2.5.1 1.9.1 3.8.1 5.7.1h3.7c18.1-.2 31.6-2.6 35.6-4zm-79.5 1.8c.4.2.9.2 1.3 0l15-9.4.3-.2 1.9.6 1.2.4 1 .3-.4.2-19.6 12.5-6-.5 1.3-14.6-11.9-3.8-1.3-.3-5.2-1.7-1.4-.4-4.3-1.4-1.3-.4-7-2.2c.3-.2.6-.4.9-.5.3-.2.6-.3.9-.5.4-.2.8-.5 1.1-.7.3-.2.8-.5.8-.5l6.7 2.1 1.3.4 4.6 1.5 1.5.3 4.8 1.5 1.3.4 13 4.1L92 45.7c0 .4.2.9.6 1.1zm2.3-3.8l1-10 5.4 1.7 4.3 1.3-.2.1L94.9 43zM60.3 30.1L52 36c-6.9 4.4-11.9 6.5-16.8 4.8l-23.9-8.3c.5-2 1.5-4.5 3.4-6.4 1.7-1.5 3.8-2.3 6.4-2.2.1 0 .2.1.2.1 7.7 5 16.3 10.4 31.2 3.7l7.8 2.4zM34.9 41.8c5.3 1.9 10.7-.5 17.7-4.9l9-6.3 4.2 1.3 1.3.4 5.4 1.7-8.6 6.1c-3.5 2.6-5.5 5.4-4.7 9.7.1.4.2.7.3 1.1.4 1.2.9 2.5 1.7 3.9-1.6-.1-3.1-.2-4.7-.2-.5 0-1.1-.1-1.6-.1-1.9-.1-3.7-.2-5.5-.3-.4-1.6-1.1-3-1.8-4.1-.3-.4-.6-.8-.9-1.1-2.2-2.5-4.8-3.6-4.9-3.6-7.6-3-22.6-8.7-30.7-11.4 0-.2.1-.3.1-.5l23.7 8.3zM60.6 51c-.1-.4-.2-.7-.3-1.1-.9-3.9.9-6.4 4.2-8.9l9.3-6.6 11.6 3.7-1.5 15.2 10.1.8 22.4-14.2.4-.3.5.2c.8.2 1.5.6 2.1 1.1 2.2 1.8 3.2 5.1 3.6 7-6.5 1.1-15.1 7.7-17.5 9.7-8.9-.4-18.2-1-27.3-1.6-5.4-.3-10.6-.7-15.7-1-.9-1.5-1.5-2.8-1.9-4zm82.5-10.9c.7.2 1.5.4 2.4.6-.1.1-.1.2-.1.3 0 .4.3.7.6.7.4 0 .6-.3.7-.6V41c.7.2 1.5.3 2.4.5.1.1.2.2.4.3h.1c.1 0 .3 0 .4-.1 2.2.4 4.7.9 7.5 1.4 0 .1-.1.2-.1.3 0 .4.3.7.6.7.2 0 .3-.1.4-.2.1-.1.2-.3.2-.5v-.1l3.9.6c.1.1.2.2.3.2h.1c.1 0 .2 0 .3-.1 1.8.2 3.7.5 5.7.7-5.3 1.2-16.5 3-31.7 3.2 2.7-2.6 4.9-6 5.9-7.8zm-7.4-2c.1-.1.1-.1 0 0 .1-.2.2-.2.3-.3.5.1 1 .3 1.6.4.2.1.4.1.6.2.7.2 1.3.4 1.9.5 1.1.3 1.9.5 2 .6-.1.1-.2.3-.2.4-.7 1.2-2.1 3.3-3.7 5.3-.3.3-.5.6-.8.9-.5.6-1.1 1.2-1.7 1.7h-2.1c-3 0-6.1-.1-9.3-.2h-.4c-.3-1.6-1.1-4.2-2.6-6.2-.2-.3-.5-.6-.7-.8-.3-.3-.6-.5-.9-.8-.6-.4-1.2-.8-2-1.1-.1 0-.3-.1-.4-.1l-1.8-.6-2.6-.8-.9-.2-1.7-.5-1.3-.5-.9-.3-.7-.2-.7-.2-5.7-1.8-2-.6-14.3-4.5-.6-.2-1.1-.3-1.3-.4-4.3-1.4-1.4-.5-5-1.6-1.3-.4-6.5-2.1.9-.6c.1 0 .1-.1.2-.1.4-.2.8-.5 1.2-.7 1.3-.8 2.6-1.5 4.1-2.1.3-.1.7-.3 1-.4l1.2-.3c.4-.1.7-.1 1.1-.2 2.3-.3 4.9 0 8.2 1.1L91.8 22c-.5 1.8-.8 3.7 0 4.8 0 0 0 .1.1.1.1.2.2.5.4.7.3.3.7.5 1.1.5.3 0 .6-.1.9-.3h.4c1-.1 2-1.4 3.3-3.5l3.4 1.2c-.1.4-.2.7-.2 1-.3 1.7-.2 2.9.5 3.5.1.7.7 1.3 1.5 1.3.3 0 .6-.1.9-.3.2 0 .4-.1.6-.2.6-.4 1.4-1.5 2.6-3.3l4.2 1.5c-.1.3-.3.7-.3.9-.5 1.6-.4 2.9.3 3.6.1.1.1.2.2.2.1.1.1.2.2.3.3.3.7.5 1.1.5.2 0 .5-.1.7-.2.2 0 .4-.1.6-.2.6-.3 1.4-1.3 2.3-2.3.2-.2.5-.5.7-.8l2.3.8 1.8.7c-.5 1.4-.9 3.2-.3 4.1 0 .1.1.2.2.3.2.7.8 1.2 1.5 1.2.5 0 .9-.2 1.2-.6.7-.3 1.4-1.2 2-2 .1-.2.3-.4.5-.6 1.7 1.3 2.6 2.9 3.2 4.2.7 1.2 1.2 2.3 2.4 2.5 1 .1 2.2-1 3.5-3.2 0-.1.1-.2.1-.3zm-8.5-3.8c2.5 1.2 5.1 2.4 7.6 3.4-.1.1-.2.3-.2.4-1.1 1.8-2 2.6-2.4 2.6-.6-.1-1-.7-1.6-1.9-.6-1.1-1.3-2.4-2.6-3.7-.3-.4-.6-.6-.8-.8-.1 0-.1 0 0 0zm-4.8-1.9s0-.1.1-.1c0-.1.1-.2.1-.2.1-.3.3-.5.4-.7.1-.1.1-.2.2-.2l.3-.3c.1 0 .6.3.8.5.4.3.8.6 1.3.8.5.2 1.1.4 1.3.8V33.3l-.1.1c-.2.1-.4.2-.6.4l-.1.1c-.1.1-.1.2-.2.2l-.4.4c-.2.2-.3.4-.5.6-.3.4-.6.8-1 1.1-.3.3-.5.5-.7.6h-.1l-.2-.2c-.1-.2-.3-.4-.5-.5-.1 0-.2-.1-.3-.1-.2 0-.3.1-.5.1-.1-.2-.1-.4-.1-.7 0-.6.2-1.5.5-2.4.2-.2.2-.4.3-.6zm-3.9-2.6c1.1.6 2.1 1.1 3.2 1.7 0 0 0 .1-.1.1l-.8-.3-2.9-1c.1-.1.2-.2.4-.3 0-.1.1-.1.2-.2zm-5.1-2.5c.1-.1.1-.2.2-.2.2-.3.4-.5.6-.6.1 0 .1-.1.2-.1s.6.3.8.5c.4.3.9.6 1.3.7.2.1.5.1.6.2.4.2.7.3.9.5.2.1.2.3.2.4-.2.1-.5.3-.7.5l-.2.2c-.2.1-.3.3-.5.5-.2.3-.5.5-.8.9-.1.2-.3.3-.4.5-.4.5-.9 1-1.2 1.4-.3.3-.6.6-.8.7h-.1l-.2-.2c-.1-.2-.3-.4-.6-.5h-.2c-.2 0-.4.1-.5.1-.2-.2-.2-.5-.3-.9 0-.4.1-.9.2-1.5.1-.3.2-.7.4-1 .1-.3.3-.7.5-1 .2-.4.4-.7.6-1.1zm-4.1-2.7c1.1.7 2.2 1.3 3.4 2-.1.1-.1.2-.2.2-.3.4-.6.9-.8 1.3l-4-1.4c.5-.7 1-1.4 1.4-1.9.1-.1.1-.2.2-.2zm-5.4-2.9c.1-.1.1-.2.2-.3.1-.2.3-.4.4-.6.1-.1.2-.2.2-.3l.2-.2c.2 0 .6.4.9.6.5.3.9.7 1.4.8.3.1 1.4.5 1.7 1.4 0 .1.1.3.1.4-.2.1-.4.3-.6.5-.1.1-.1.2-.2.2-.4.5-.9 1.1-1.5 2-.1.2-.3.5-.5.7 0 .1-.1.1-.1.2-.5.8-1.1 1.6-1.5 2.2-.2.3-.4.5-.6.6h-.1c-.1 0-.1-.2-.2-.2-.1-.2-.3-.4-.6-.5h-.2c-.2 0-.4.1-.5.2-.2-.1-.3-.3-.3-.7 0-.3-.1-.6 0-1.1.1-.5.2-1.1.3-1.7.1-.3.2-.7.3-1 .3-1.2.8-2.3 1.2-3.2zm-3-2.3c.8.5 1.5 1 2.3 1.4-.1.1-.1.2-.2.3-.5 1-1.1 2.1-1.5 3.3l-3.2-1.1.6-.9c.5-.9 1.2-2.1 1.7-2.7.2-.1.2-.2.3-.3zM95.7 16c.1-.2.2-.3.4-.5.1-.2.3-.3.3-.4 0 0 .1 0 .1-.1.4-.1.7.2 1.1.7l.5.5c.1.1.2.2.4.2.1 0 .2.1.2.1.2.1 1.1.4 1.6 1.1.1.2.2.4.2.6v.1c-.1.1-.3.2-.5.4l-.3.3c-.4.6-1 1.4-1.7 2.7-.2.3-.4.7-.7 1.1l-.6.9c-.7 1.1-1.4 2.1-2 2.6-.2.1-.3.2-.4.2-.3 0-.4 0-.5-.2-.1-.1-.3-.3-.5-.4h-.2c-.2 0-.4.1-.5.2-.1-.2-.2-.5-.2-.9 0-.6.1-1.5.3-2.5 0-.1.1-.2.1-.3.1-.3.2-.7.3-1 .7-1.9 1.6-3.8 2.3-5 .1-.1.2-.3.3-.4zM75.2 1.7h.4c.2 0 .4.1.7.2.9.3 2.1.9 3.5 1.7 2.6 1.6 5.7 3.9 8.2 5.9 1.3 1 2.4 2 3.2 2.7l.7.5-.1.1-.3.4-.3.5-.3.3-.7-.5s-.5-.4-1.3-1c-.4-.3-.9-.7-1.5-1.2-2.3-1.8-5.6-4.2-8.6-6-.4-.2-.7-.4-1-.6-.8-.4-1.6-.8-2.3-1.1-.1 0-.1 0-.2-.1l-.9-.3c-.1 0-.2-.1-.3-.1l1.1-1.4zm-2.3 6c.2-.5.4-.9.7-1.3.2-.3.4-.7.6-1 .2-.4.5-.7.7-1 2.8 1.2 8.5 5 12.7 8.3.3.2.6.5.9.7.4.3.7.6 1.1.9l1.6 1.2.9-1.2c.8.5 1.6 1 2.5 1.6-.9 1.4-1.8 3.4-2.2 4.5-.1.2-.2.5-.2.7l-10.7-3.8c-.6-.3-1.1-.5-1.3-.6-3.1-1.4-5.8-1.8-8.1-1.7-.7-2.3-.4-4.7.8-7.3zm-1.6.7c.1-.2.3-.4.4-.6-.9 2.2-1.4 4.7-.9 7.3-.4.1-.8.1-1.1.2-.3-2.2.2-4.5 1.6-6.9zM9.5 16.9c.2-.4.7-.6 1.2-.6 3.6.1 6.8 2.2 10.6 4.6 8.8 5.6 19.8 12.6 43.3-2.2 1.1-.7 2.6-1.5 4.2-2 .3-.1.7-.2 1.1-.3.4-.1.8-.2 1.2-.2.4 0 .7-.1 1.1-.1h.7c-.2 0-.4.1-.6.1-.4.1-.7.1-1.1.2l-1.2.3c-.4.1-.7.2-1 .4-1.8.7-3.4 1.7-4.9 2.7-.2.1-.4.3-.6.4-.4.3-.9.5-1.3.8-.1.1-.3.2-.4.3-.4.3-.9.6-1.3.9-.1.1-.2.1-.2.2-.1.1-.3.2-.4.3l-.1.1-.1.1s-.1 0-.1.1c-.3.2-.5.3-.8.5-.1.1-.3.2-.4.3-.3.2-.7.4-1 .6-.1.1-.3.2-.4.2-.8.5-1.7 1-2.5 1.4h-.1c-.1 0-.2.1-.2.1-.5.3-1.1.5-1.6.8-13.9 6.4-22.2 1.8-29.5-2.8l-1-.8c-.3-.2-6.4-5.3-12.6-5.2-.1-.7-.1-1 0-1.2zm-2.1 8.4l.3.3.1.1.2.2c.1.1.2.2.2.4 0 .3-.2.4-.3.3-.1 0-.2 0-.2-.1-.1-.1-.1-.2-.1-.4h-.1c-.1-.3-.1-.5-.1-.8zm-.2 3.5c0-.5.1-1.1.1-1.6l.2.2c.1 0 .1.1.2.1.5 0 .6-.2.7-.4.1-.2.2-.6.2-.8.1-.5 0-.9-.3-1.1l-.3-.4-.1-.1c-.1-.1-.2-.2-.2-.4 0-.1.1-.3.3-.3.3 0 .3.2.3.5h.5c0-.3-.1-.7-.2-.9-.1-.2-.3-.4-.5-.4s-.4.1-.6.3c0-.3.1-.6.1-1l.5.1.6.1H9l.1-1-.5-.1-.5-.1-.5-.1c.2-1 .4-1.8.6-2.4.1-.1.1-.2.2-.3.1-.2.3-.3.4-.4h.6c4.1 0 8.4 2.6 10.4 4-.2 0-.3 0-.5.1-2.1.3-4 1.1-5.5 2.5-1.8 1.6-2.8 3.7-3.4 5.6-.1.4-.3.8-.3 1.2-.1.4-.2.7-.2 1.1 0 .2-.1.4-.1.6h-.1c-.7-.2-1.4-.4-1.9-.6-.2-.1-.4-.1-.6-.2-.1 0-.3-.1-.4-.1h-.2c.3-1 .5-2.3.6-3.7zm-1.4 5.7s.1 0 0 0c.1-.2.2-.4.3-.5l.1-.2c.1 0 .4.1.6.1h.1c.1 0 .1 0 .2.1.2.1.5.1.7.2.4.1.8.2 1.3.4.3.1.6.2 1 .3l.9.3c.1 0 .2.1.3.1 7.4 2.5 20.9 7.6 30.2 11.2 0 0 1.9.8 3.7 2.5.4.3.7.7 1.1 1.1.9 1.1 1.7 2.5 2.2 4.1-4.1-.2-8.1-.3-11.7-.3-9.9-.3-17.6-.4-23.2-.5-1.9 0-3.5-.1-4.9-.1H4.6c0-.2-.1-.3-.1-.5-.2-1.1-.3-2.3-.4-3.5-.6-6.1.8-12.5 1.7-14.8zm-2.3 20c.1-.1.3-.1.5-.1h1.1c1.1 0 3.4 0 8.2.1 4.8.1 12.1.3 23.2.5 4.1 0 8.5.2 13.1.3 2.7.1 5.5.2 8.3.4 1.3.1 2.6.1 4 .2.4 0 .9 0 1.3.1 4.8.3 9.8.6 14.9.9 8.7.6 17.6 1.1 26.1 1.5 1 0 1.9.1 2.9.1 8.3.4 16.2.6 23.3.4 24.9-.4 52.1-7.3 55.8-8.3.3-.1.4-.1.4-.1.5 0 .5 0 .6.6 0 0-.3.1-.8.2-4.7 1.3-31.2 8-55.3 8.4-6.6.1-13.9-.1-21.5-.4-1.3-.1-2.7-.1-4-.2-8.8-.4-17.8-1-26.8-1.6-5.2-.3-10.3-.7-15.3-.9-.4 0-.9-.1-1.4-.1-9.1-.5-17.5-.9-25-.9-2.7-.1-5.2-.1-7.4-.2-14.1-.2-21.2-.3-24.7-.3H3.2c0-.4.1-.6.3-.6zm-.1 15.6c.4-2.8.3-5.4.1-7.6-.3-2.9-.9-5.2-1.2-6.3h2.5c3.8 0 12 .1 30.1.6.8 0 1.6 0 2.4.1 8.1 0 17.3.5 27.2 1.1 4.7.3 9.5.6 14.5.9 10.3.7 20.7 1.3 30.7 1.7 2.5.1 5 .2 7.4.3 5 .1 9.8.2 14.3.1 5-.1 10.1-.4 15-.9 21.6-2.2 41.1-7.6 41.3-7.7.1 0 .1 0 .2-.1v1.1c-3.4.9-22.9 5.9-43.4 7.9-4.4.4-8.9.7-13.2.8-4.2.1-8.7 0-13.9-.1h-1.1c-.2 0-.3.1-.3.3 0 .2.1.3.3.3 3.9.1 7.5.2 10.8.2h4.2c24.5-.4 52-7.4 56.6-8.7h.1c.1 1.5.3 3.5.8 5.5h-.2c-11.3 3.7-32.4 6.8-42.6 8.3h-.2c-.7.2-1 .5-1.2.7l-.1.1c-.2.2-2.5 1.4-24.6 1.4H3.4zm49.9 3H19l-10.3.1c-.5 0-.9 0-1.4-.1-1.1-.1-2-.4-2.6-.8-.5-.4-.9-.8-1.1-1.1h49.6v1.9zm6.9 0h-5.9v-1.9h5.9v1.9zm53.8-.7v.7H61.1v-1.9H114v1.2zm6.8 0v.7H115v-1.9h5.9v1.2zm32.5-2.4V71.2c-1.1.2-2.2.3-3.3.4-10.6 1.3-19.6 1.5-28.3 1.5v-1.9c22.1-.1 23.1-1.3 23.4-1.7.1 0 .1-.1.2-.2s.2-.3.7-.4h.2c2-.3 4.4-.7 7.1-1.1V70zm6.4-1.1v1.3c-1.8.3-3.6.6-5.4.8V67.7c1.7-.3 3.5-.5 5.4-.8v2zm29.1-7.9c-.1.8-.4 1.4-.9 1.9-.9 1-2.3 1.6-3.3 1.9-8.9 2.4-16.8 4.1-23.9 5.3V66.7c9.7-1.6 20.9-3.7 28.2-6.1-.1.1-.1.2-.1.4z"></path><path d="M145.2 44c-.1 0-.1 0 0 0-.4 0-.7-.3-.7-.7 0-.2.1-.3.2-.5.1-.1.3-.2.5-.2.4 0 .6.3.6.7 0 .5-.3.7-.6.7zM144.2 46.4c-.2 0-.4-.1-.5-.2-.1-.1-.2-.3-.2-.5 0-.4.3-.6.7-.6.2 0 .3.1.5.2.1.1.2.3.2.5 0 .3-.3.6-.7.6zM149 43.9c-.4 0-.7-.3-.7-.7 0-.4.3-.6.7-.6.2 0 .3.1.5.2.1.1.2.3.2.5s-.1.3-.2.5c-.1.1-.3.1-.5.1zM147.8 46.4c-.4 0-.7-.3-.7-.7 0-.4.3-.6.7-.6.2 0 .3.1.5.2.1.1.2.3.2.5 0 .3-.3.6-.7.6zM153.5 43.9c-.4 0-.7-.3-.7-.7 0-.4.3-.6.7-.6.2 0 .3.1.5.2.1.1.2.3.2.5s-.1.3-.2.5c-.2 0-.3.1-.5.1zM152.3 46.5c-.1 0-.1 0 0 0-.4 0-.7-.3-.7-.7 0-.2.1-.3.2-.5.1-.1.3-.2.5-.2.4 0 .7.3.6.7 0 .2-.1.3-.2.5-.1.1-.3.2-.4.2zM157.4 46.2c-.2 0-.4-.1-.5-.2-.1-.1-.2-.3-.2-.5 0-.4.3-.6.7-.6.2 0 .3.1.5.2.1.1.2.3.2.5s-.1.3-.2.5c-.2 0-.3.1-.5.1z"></path><circle cx="161.3" cy="45.1" r=".4"></circle><path d="M161.3 45.8c-.4 0-.7-.3-.7-.7 0-.4.3-.6.7-.6.4 0 .6.3.6.7 0 .3-.3.6-.6.6zM83.5 24.8c-.4 0-.8-.2-1.1-.5-.3-.3-.5-.7-.4-1.1 0-.4.2-.8.5-1.1.3-.3.7-.4 1.1-.4.4 0 .8.2 1.1.5.3.3.5.7.4 1.1 0 .4-.2.8-.5 1.1-.3.3-.7.4-1.1.4z"></path><g><path d="M73.7 21.5c-.4 0-.8-.2-1.1-.5-.3-.3-.5-.7-.4-1.1s.2-.8.5-1.1c.3-.3.7-.5 1.1-.4.4 0 .8.2 1.1.5.3.3.5.7.4 1.1 0 .4-.2.8-.5 1.1-.3.3-.6.4-1.1.4z"></path></g><g><path d="M47.2 63.3h-1c-.1-.2-.2-.4-.8-.4-.4 0-.6.2-.6.3 0 .2.1.3.6.4l.9.2c.6.2.9.6.9 1.1 0 .3-.1.6-.3.9-.2.2-.5.5-1.5.5-1.4 0-1.9-.8-1.9-1.3h1.1c.1.4.4.5.9.5.4 0 .7-.1.7-.4 0-.3-.2-.3-.5-.4l-.7-.2c-.4-.1-.7-.2-.9-.4-.6-.4-.5-1.2.1-1.7.3-.2.7-.3 1.2-.3.6 0 1 .2 1.3.4.2.1.5.5.5.8m-17.6-2.8l2.2 5.7h1.3l2-4.7h12.4l.1-1H34.1l-1.7 3.9-1.5-3.9h-1.3zm10.7 3.6l1.6 2.1h1v-4.1h-1.2v2.2l-1.5-2.2h-1.1v4.1h1.1v-2.1zm9 1.4c0-.3-.3-.6-.7-.6-.4 0-.7.3-.7.6s.3.6.7.6c.4 0 .7-.2.7-.6m-.1 0c0 .3-.2.5-.6.5-.3 0-.6-.2-.6-.5s.2-.5.6-.5c.4 0 .6.2.6.5m-.3-.1c0-.1-.1-.2-.3-.2h-.3v.7h.2v-.2h.1l.1.2h.3l-.2-.2c.1-.1.1-.2.1-.3m-.1 0c0 .1 0 .1-.1.1h-.2v-.2h.2s.1 0 .1.1m-14.7.8h1.2l.2-.6h1.7l.2.6h1.2L37 62.1h-1.3l-1.6 4.1zm1.9-1.4l.5-1.3.5 1.3h-1z" fill="#0f0f10"></path></g></svg>