<?xml version="1.0" encoding="utf-8"?>
<!-- Generator: Adobe Illustrator 25.2.1, SVG Export Plug-In . SVG Version: 6.00 Build 0)  -->
<svg version="1.1" id="Capa_1" xmlns="http://www.w3.org/2000/svg" xmlns:xlink="http://www.w3.org/1999/xlink" x="0px" y="0px"
	 viewBox="0 0 60.42 47" style="enable-background:new 0 0 60.42 47;" xml:space="preserve">
<style type="text/css">
	.st0{fill:none;}
	.st1{fill:#636363;}
	.st2{fill:#636363;}
	.st3{fill:#ccc;}
	.st4{fill:#fff}
</style>
<rect x="-29.61" y="-33.75" class="st0" width="146.8" height="120.41"/>
<g>
	<g>
		<g>
			<path class="st4" id="XMLID_1775_" d="M10.99,46.73v-3.11c0-1.17-0.75-1.96-1.95-1.97c-0.63-0.01-1.29,0.19-1.74,0.88
				c-0.34-0.55-0.88-0.88-1.64-0.88c-0.53,0-1.05,0.16-1.45,0.74v-0.61H3.13v4.96h1.09v-2.75c0-0.86,0.48-1.32,1.21-1.32
				c0.72,0,1.08,0.47,1.08,1.31v2.76H7.6v-2.75c0-0.86,0.5-1.32,1.21-1.32c0.74,0,1.09,0.47,1.09,1.31v2.76H10.99z M27.11,41.78
				h-1.76v-1.5h-1.09v1.5h-1.01v0.99h1.01v2.26c0,1.15,0.45,1.84,1.72,1.84c0.47,0,1.01-0.15,1.35-0.38l-0.31-0.92
				c-0.32,0.19-0.67,0.28-0.95,0.28c-0.54,0-0.72-0.33-0.72-0.83v-2.24h1.76V41.78z M36.31,41.65c-0.62,0-1.03,0.29-1.31,0.73v-0.6
				h-1.07v4.96h1.08v-2.78c0-0.82,0.35-1.28,1.06-1.28c0.22,0,0.45,0.03,0.67,0.12l0.33-1.02C36.84,41.69,36.53,41.65,36.31,41.65
				L36.31,41.65z M22.4,42.17c-0.52-0.34-1.23-0.52-2.02-0.52c-1.26,0-2.06,0.6-2.06,1.59c0,0.81,0.6,1.31,1.71,1.46l0.51,0.07
				c0.59,0.08,0.87,0.24,0.87,0.52c0,0.38-0.39,0.6-1.13,0.6c-0.75,0-1.29-0.24-1.65-0.52l-0.51,0.84c0.59,0.44,1.34,0.64,2.15,0.64
				c1.43,0,2.26-0.67,2.26-1.62c0-0.87-0.65-1.33-1.73-1.48l-0.51-0.07c-0.47-0.06-0.84-0.16-0.84-0.49c0-0.36,0.35-0.58,0.94-0.58
				c0.63,0,1.24,0.24,1.55,0.43L22.4,42.17z M51.3,41.65c-0.62,0-1.03,0.29-1.31,0.73v-0.6h-1.07v4.96H50v-2.78
				c0-0.82,0.35-1.28,1.06-1.28c0.22,0,0.45,0.03,0.67,0.12l0.33-1.02C51.82,41.69,51.51,41.65,51.3,41.65L51.3,41.65z M37.4,44.25
				c0,1.5,1.05,2.6,2.64,2.6c0.75,0,1.24-0.17,1.78-0.59l-0.52-0.87c-0.4,0.29-0.83,0.45-1.3,0.45c-0.86-0.01-1.49-0.63-1.49-1.59
				c0-0.95,0.63-1.58,1.49-1.59c0.47,0,0.89,0.16,1.3,0.45l0.52-0.87c-0.54-0.43-1.04-0.59-1.78-0.59
				C38.44,41.65,37.4,42.75,37.4,44.25L37.4,44.25z M47.5,44.25v-2.48h-1.08v0.6c-0.34-0.45-0.86-0.73-1.57-0.73
				c-1.39,0-2.48,1.09-2.48,2.6c0,1.51,1.09,2.6,2.48,2.6c0.71,0,1.22-0.28,1.57-0.73v0.6h1.08V44.25z M43.49,44.25
				c0-0.87,0.57-1.59,1.5-1.59c0.89,0,1.49,0.68,1.49,1.59c0,0.9-0.6,1.59-1.49,1.59C44.06,45.84,43.49,45.13,43.49,44.25
				L43.49,44.25z M30.47,41.65c-1.45,0-2.47,1.06-2.47,2.6c0,1.58,1.06,2.6,2.54,2.6c0.75,0,1.43-0.19,2.03-0.7l-0.53-0.8
				c-0.41,0.33-0.94,0.52-1.44,0.52c-0.69,0-1.33-0.32-1.48-1.21h3.68c0.01-0.13,0.02-0.27,0.02-0.41
				C32.81,42.71,31.86,41.65,30.47,41.65L30.47,41.65z M30.45,42.62c0.69,0,1.14,0.44,1.26,1.2h-2.57
				C29.24,43.1,29.68,42.62,30.45,42.62L30.45,42.62z M57.51,44.25v-4.47h-1.08v2.59c-0.34-0.45-0.86-0.73-1.57-0.73
				c-1.39,0-2.48,1.09-2.48,2.6c0,1.51,1.09,2.6,2.48,2.6c0.71,0,1.22-0.28,1.57-0.73v0.6h1.08V44.25z M53.49,44.25
				c0-0.87,0.57-1.59,1.5-1.59c0.89,0,1.49,0.68,1.49,1.59c0,0.9-0.6,1.59-1.49,1.59C54.06,45.84,53.49,45.13,53.49,44.25
				L53.49,44.25z M17.07,44.25v-2.48h-1.08v0.6c-0.34-0.45-0.86-0.73-1.57-0.73c-1.39,0-2.48,1.09-2.48,2.6
				c0,1.51,1.09,2.6,2.48,2.6c0.71,0,1.22-0.28,1.57-0.73v0.6h1.08V44.25z M13.05,44.25c0-0.87,0.57-1.59,1.5-1.59
				c0.89,0,1.49,0.68,1.49,1.59c0,0.9-0.6,1.59-1.49,1.59C13.62,45.84,13.05,45.13,13.05,44.25z M59.31,46.01
				c0.07,0,0.13,0.01,0.2,0.04c0.06,0.03,0.11,0.06,0.16,0.11c0.05,0.04,0.08,0.1,0.11,0.16c0.03,0.06,0.04,0.12,0.04,0.19
				c0,0.07-0.01,0.13-0.04,0.19c-0.03,0.06-0.06,0.11-0.11,0.16c-0.05,0.04-0.1,0.08-0.16,0.11c-0.06,0.03-0.13,0.04-0.2,0.04
				c-0.07,0-0.14-0.01-0.2-0.04c-0.06-0.03-0.12-0.06-0.16-0.11c-0.05-0.04-0.08-0.1-0.11-0.16c-0.03-0.06-0.04-0.12-0.04-0.19
				c0-0.07,0.01-0.13,0.04-0.19c0.03-0.06,0.06-0.11,0.11-0.16c0.04-0.04,0.1-0.08,0.16-0.11C59.17,46.03,59.24,46.01,59.31,46.01z
				 M59.31,46.89c0.05,0,0.1-0.01,0.15-0.03c0.05-0.02,0.09-0.05,0.12-0.08c0.03-0.03,0.06-0.08,0.08-0.12
				c0.02-0.05,0.03-0.1,0.03-0.15s-0.01-0.1-0.03-0.15c-0.02-0.05-0.05-0.09-0.08-0.12c-0.03-0.03-0.07-0.06-0.12-0.08
				c-0.05-0.02-0.1-0.03-0.15-0.03c-0.05,0-0.1,0.01-0.15,0.03c-0.05,0.02-0.09,0.05-0.12,0.08c-0.03,0.03-0.06,0.08-0.08,0.12
				c-0.02,0.05-0.03,0.1-0.03,0.15s0.01,0.1,0.03,0.15c0.02,0.05,0.05,0.09,0.08,0.12c0.03,0.03,0.08,0.06,0.12,0.08
				C59.2,46.88,59.25,46.89,59.31,46.89z M59.33,46.28c0.06,0,0.1,0.01,0.14,0.04c0.03,0.03,0.05,0.06,0.05,0.11
				c0,0.04-0.01,0.07-0.04,0.09c-0.03,0.02-0.06,0.04-0.11,0.05l0.15,0.17h-0.12l-0.14-0.17h-0.04v0.17h-0.1v-0.46H59.33z
				 M59.22,46.36v0.12h0.11c0.03,0,0.05-0.01,0.06-0.02c0.02-0.01,0.02-0.03,0.02-0.05c0-0.02-0.01-0.04-0.02-0.05
				c-0.02-0.01-0.04-0.01-0.06-0.01H59.22z"/>
		</g>
		<g id="XMLID_328_">
			<rect x="22.04" y="3.99" class="st1" width="16.34" height="29.36"/>
			<path id="XMLID_330_" class="st2" d="M23.08,18.67c0-5.96,2.79-11.26,7.13-14.68C27.03,1.49,23.03,0,18.67,0
				C8.36,0,0,8.36,0,18.67c0,10.31,8.36,18.67,18.67,18.67c4.36,0,8.36-1.49,11.54-3.99C25.87,29.93,23.08,24.63,23.08,18.67z"/>
			<path d="M58.64,30.24v-0.6h0.24v-0.12h-0.62v0.12h0.24v0.6H58.64z M59.84,30.24v-0.72h-0.19l-0.22,0.5l-0.22-0.5h-0.19v0.72h0.13
				V29.7l0.2,0.47h0.14l0.2-0.47v0.55H59.84z"/>
			<path class="st3" d="M60.42,18.67c0,10.31-8.36,18.67-18.67,18.67c-4.36,0-8.36-1.49-11.54-3.99c4.34-3.42,7.13-8.72,7.13-14.68
				S34.55,7.41,30.21,3.99C33.39,1.49,37.39,0,41.75,0C52.06,0,60.42,8.36,60.42,18.67z"/>
		</g>
	</g>
</g>
</svg>
