<svg xmlns="http://www.w3.org/2000/svg" id="i-shoe-style-old-skool" viewBox="625.5 345.05 188.86 77.93"><path d="M745.33 390.11c-4.01.06-20.98-6.07-32.19-10.14-3.68-1.34-6.59-2.39-7.95-2.83l-.72-.21c-1.95-.57-3.2-.83-4.31-.88h-.11c-2.21-.07-3.84.18-9.37 2.66-13.45 6.05-27.99 8.05-42.35 5.9 1.66 1.93 3.29 4.03 4.83 6.21 14.39.91 27.46-1.38 38.94-6.87 3.56-1.7 5.23-1.97 7.13-1.97.4 0 .82.01 1.26.03l.24.01c1.6.07 3.12.46 4.91 1.01.8.25 2.73.92 5.4 1.84 9.45 3.28 29.1 10.1 33.94 10.18h.18c4.13.11 6.46-.72 9.01-3.56-1.93-.7-3.89-1.45-5.87-2.24-.72.54-1.64.89-2.97.86zM805.15 394.87c-.39-.02-.8-.03-1.25-.05-1.42-.06-3.13-.13-5.21-.24-9.07-.47-18.81-2.57-26.61-4.67-3.57-.96-6.72-1.92-9.22-2.72v.07c.01.11.01.22.02.34.06 1.09.15 2.74-.19 4.94-.1.64-.23 1.32-.41 2.05-.02.06-.03.12-.04.19-.59 2.33-1.34 4.71-2.08 7.03 23.76-.71 37.04-4.58 43.87-6.56-.02.01.48-.16 1.12-.38z" fill="none"></path><path d="M693.32 360.1l-.52.86c.02.01.13.08.32.19.26-.24.52-.47.78-.7-.35-.22-.55-.34-.58-.35z" fill="#0f0f10"></path><path d="M693.93 354.02c-.66 1.79-.99 3.69-.61 5.55l.02-.02c-.17-1.82.03-3.68.59-5.53zM693.53 360.77l-.12.12.12-.12zM695.84 357.3l.43-.4c1.33-1.23 2.47-2.29 3.55-3.23 1.08-.94 2.34-.72 3.7.08 0 0 8.93 5.51 20.27 12.09-.46-.41-.92-.82-1.39-1.22-4.54-3.9-17.2-14.02-21.6-17.19-1.46 1.82-4.31 6.42-4.66 7.73-.24.88-.3 1.62-.3 2.14zM658.06 400.54c-1.53-2.87-3.39-5.87-5.42-8.76l-.75-1.05c-1.63-2.25-3.34-4.4-5.08-6.36-.37-.42-.75-.83-1.12-1.22-.95-1.01-1.9-1.97-2.84-2.82-.05-.05-.11-.09-.16-.14-.41-.36-.86-.74-1.36-1.12-2.99-2.33-7.3-4.93-9.8-6.33l-.06-.03c-.27.64-.77 2-1.31 4.27-.98 4.17-2.08 11.41-2.04 22.98 0 .11.02.22.05.33 3.03.03 24.4.21 29.89.25zM761.42 393.88c-.87-.26-1.76-.54-2.66-.83.83.44 1.69.85 2.55 1.26.03-.1.07-.25.11-.43z" fill="none"></path><path d="M754.17 391.48l-.24-.09c.07.04.14.08.21.13.01-.02.02-.03.03-.04z"></path><path d="M702.78 354.47c-.91-.48-1.69-.58-2.31-.04-1.06.93-2.2 1.98-3.52 3.21-.82.76-1.69 1.56-2.6 2.39-.15.14-.3.27-.45.41.16.1.37.22.6.36 5.65 3.35 30.88 18.08 53.6 27.28.33.13.65.26.98.39.34.13.67.26 1 .39 1.36.54 2.71 1.05 4.05 1.54.24.09.49.18.73.27.33.12.66.24.99.35 1.96.69 3.89 1.32 5.75 1.88.19-1.19.37-2.98.26-5.24a12.2 12.2 0 01-.03-.78c-7.86-3.08-19.64-9.36-30.58-15.55-1.26-.72-2.52-1.43-3.75-2.14-7.36-4.22-14.05-8.22-18.52-10.93-2.7-1.63-5.92-3.65-6.2-3.79z" fill="none"></path><path d="M643.53 379.59c.26.24.53.5.79.75.99.95 1.98 1.98 2.98 3.09 14.55 2.41 29.32.49 42.97-5.64 5.46-2.45 7.35-2.81 9.77-2.75l.16.01c1.2.06 2.52.32 4.55.92l.73.21c1.4.45 4.31 1.51 8 2.85 2.23.81 4.77 1.73 7.44 2.69 7.83 2.8 16.69 5.85 21.52 6.96 1.25.29 2.23.44 2.85.43.78.02 1.38-.09 1.89-.34-21.6-8.81-45.26-22.44-52.29-26.58l-1.22-.72c-.21-.13-.4-.24-.53-.32l-.01-.01c-.1.09-.2.18-.3.26-1.22 1.09-2.52 2.23-3.96 3.42-5.18 4.31-14.27 9.35-22.85 9.39h-.25c-16.24 0-25.56-7.47-27.27-8.97-.88-.77-1.27-.79-1.7-.64-2.24 2.72-3.87 5.16-4.84 7.21 2.84 1.59 8.16 4.8 11.18 7.42.13.13.27.25.39.36zM693.35 359.54l.88-.86.64-.63c-.06-.5-.11-1.65.29-3.15.41-1.53 3.3-6.12 4.79-8.02-.14-.09-.26-.17-.38-.25-.24-.16-.46-.3-.61-.39-1.09 1.16-3.72 4.23-5.04 7.78-.66 1.79-.99 3.69-.61 5.55l.04-.03zM761.43 397.65c-.41 1.39-.85 2.79-1.28 4.17a223.545 223.545 0 0012.43-.71 184.442 184.442 0 007.97-.87c11.48-1.5 18.9-3.66 23.46-4.98 0 0 .5-.17 1.13-.38-.39-.02-.8-.03-1.25-.05-1.42-.06-3.13-.13-5.21-.24-9.07-.47-18.81-2.57-26.61-4.67-3.57-.96-6.72-1.92-9.22-2.72v.07c.01.11.01.22.02.34.06 1.09.15 2.74-.19 4.94-.1.64-.23 1.32-.41 2.05l-.03.14c0 .02-.01.03-.01.05-.08.29-.16.59-.24.89l-.27 1.01c-.1.31-.2.64-.29.96z" fill="none"></path><path d="M695.84 357.3l.43-.4c1.33-1.23 2.47-2.29 3.55-3.23 1.08-.94 2.34-.72 3.7.08 0 0 8.93 5.51 20.27 12.09-.46-.41-.92-.82-1.39-1.22-4.54-3.9-17.2-14.02-21.6-17.19-1.46 1.82-4.31 6.42-4.66 7.73-.24.88-.3 1.62-.3 2.14z" fill="none"></path><path d="M812.66 397.69s-.06.05-.21.15c-.67-1.23-1.61-2.41-1.65-2.46-.49-.75-2.07-1.2-2.5-1.09 0 0-.09.08-.44.24-1.74-.14-4.54-.2-9.16-.45-15.19-.79-32.16-6.21-36.35-7.57v.04c-8.75-3.37-22.51-10.84-34.52-17.73-1.67-1.54-3.36-3.07-5.1-4.57-4.63-3.98-20.49-16.69-22.98-18.11-.41-.27-.77-.48-.87-.52-3.08 3.19-7.56 9.51-5.81 14.91a129.82 129.82 0 01-4.52 3.92c-4.61 3.83-13.73 9.23-22.54 9.27-14.75.07-24.13-6.16-27.18-8.84-.99-.87-1.56-.99-2.33-.69-2.16 2.62-4.11 5.41-5.18 7.85a.076.076 0 00-.04-.02c-.46.8-3.68 8.29-3.62 27.95 0 .28.09.55.24.82h-.05c-.5-.01-1.19 4.12-1.18 4.27 0 .05-.02.94.03 1.43.02.19-.05.41-.04.46.91 4.46 2.65 12.91 2.65 12.91l2.81.12s72.39 1.49 107.58 2.14c-.03.12-.08.24-.1.35 0 0 6.8-.1 11.09-.15 1.29.02 2.44.04 3.44.06 4.19.07 8.14-.04 11.87-.26 24.27-1.05 41.13-6.15 43.59-7.02 1.27-.45 2.09-.85 2.09-1.74-.03-4.75 1.93-10.11 2.16-11.32.18-1.36-1.05-4.37-1.18-4.35z" fill="#fff"></path><path d="M813.03 397.35l-.21-.19-.17.03c-.43-.72-.94-1.45-1.43-2.1-.63-.95-2.41-1.44-3.03-1.29l-.09.01-.1.09s-.13.05-.33.11c-.95-.07-2.16-.12-3.74-.19-1.41-.06-3.13-.13-5.2-.24-13.46-.7-28.48-5.03-36.22-7.55l-.53-.17c-8.52-3.39-22.1-10.78-34.03-17.62-1.6-1.48-3.23-2.95-4.9-4.38-3.88-3.33-19.66-16.08-22.93-18.08-.44-.29-.92-.59-1.1-.64l-.29-.09-.21.22c-1.34 1.39-7.84 8.54-6 15.09-1.31 1.17-2.72 2.41-4.29 3.71-5.05 4.2-13.9 9.12-22.22 9.16h-.24c-15.88 0-24.95-7.26-26.61-8.72-1.08-.95-1.85-1.16-2.84-.78l-.12.05-.08.1c-1.59 1.92-3.72 4.75-5.02 7.47l-.01-.01-.24.43c-.04.07-3.75 7.13-3.69 28.2 0 .22.05.43.14.65-.61.89-1.13 4.31-1.12 4.45v.1c0 .19-.01.55 0 .89-.47.45-.43.92-.4 1.07.07.35.14.71.21 1.08-.05.03-.09.05-.15.09l-.34.14.02.06.6 2.16c.65 2.75 1.18 6.22 1.2 6.32.07.23.22.41.4.49.17.95.29 1.62.32 1.85.07.43.41.73.85.96.04.02.08.04.13.06 1.14.51 2.87.52 2.97.52.65 0 26.28.43 53.41.88 18.97.32 39.17.65 53.65.89l-.09.35.65-.01c.1 0 6.8-.1 11.06-.15 1.87-.02 3.27-.04 3.44-.04 3.95.06 7.75.01 11.38-.14 26.59-1.07 44.09-7.01 44.28-7.08 1.02-.36 2.43-.86 2.42-2.22-.02-3.59 1.13-7.59 1.75-9.74.2-.68.34-1.18.4-1.48v-.01c.19-1.43-.96-4.42-1.31-4.76zm-51.05-1.68l.24-.89c0-.02.01-.03.01-.05l.03-.14c.18-.73.32-1.42.41-2.05.34-2.2.25-3.85.19-4.94-.01-.12-.01-.23-.02-.34v-.07c2.5.8 5.66 1.76 9.22 2.72 7.8 2.1 17.54 4.2 26.61 4.67 2.08.11 3.8.18 5.21.24.45.02.86.04 1.25.05-.64.22-1.13.38-1.13.38-4.55 1.32-11.98 3.48-23.46 4.98a188.668 188.668 0 01-7.97.87l-2.25.18c-3.16.24-6.55.42-10.18.53.44-1.38.87-2.78 1.28-4.17.09-.32.19-.64.28-.97.1-.33.19-.66.28-1zm-69.44-10.82c4.1-1.96 5.46-1.92 7.95-1.85l.2.01c1.49.07 2.94.43 4.66.96.79.24 2.7.91 5.36 1.83 10.22 3.55 29.25 10.15 34.25 10.23h.17c.22 0 .43.01.64.01 2.97 0 5.09-.55 7.04-1.99.29-.22.59-.46.88-.72.43-.39.86-.82 1.3-1.3.06-.07.12-.12.18-.2 1.21.43 2.41.83 3.58 1.21.9.29 1.78.57 2.66.83-.04.18-.08.32-.1.43-.03.13-.06.21-.06.23-.06.24-.13.48-.19.71-.09.35-.18.69-.28 1.04-.09.32-.19.64-.28.97-.45 1.53-.93 3.07-1.41 4.58-3.11.08-6.38.11-9.84.07-30.42-.76-65.21-1.14-90.05-1.36-1.49-2.83-3.3-5.81-5.29-8.69 14.23.8 27.2-1.54 38.63-7zm-39.37 5.96a88.133 88.133 0 00-4.83-6.21c14.36 2.15 28.89.15 42.35-5.9 5.53-2.48 7.16-2.73 9.37-2.66h.11c1.11.05 2.36.31 4.31.88l.72.21c1.37.44 4.27 1.49 7.95 2.83 9.21 3.35 22.3 8.08 28.9 9.63 1.44.34 2.57.53 3.29.52.2 0 .37-.02.56-.03 1.03-.07 1.81-.38 2.42-.85 1.9.76 3.77 1.48 5.62 2.15l.24.09-.04.04c-.49.54-.97 1-1.46 1.4-.31.26-.63.49-.94.69-1.78 1.14-3.75 1.52-6.57 1.44h-.18c-4.84-.08-24.5-6.9-33.94-10.18-2.67-.93-4.59-1.59-5.4-1.84-1.79-.55-3.31-.93-4.91-1.01l-.24-.01c-.45-.01-.86-.03-1.26-.03-1.9 0-3.56.27-7.13 1.97-11.48 5.5-24.55 7.79-38.94 6.87zm78.09-19.48c10.94 6.19 22.72 12.47 30.58 15.55 0 .22.01.47.03.78.12 2.26-.06 4.05-.26 5.24-1.87-.56-3.79-1.19-5.75-1.88-.33-.12-.66-.23-.99-.35-.24-.09-.49-.18-.73-.27-1.33-.49-2.69-1-4.05-1.54-.33-.13-.66-.26-1-.39-.33-.13-.65-.26-.98-.39-22.73-9.2-47.96-23.92-53.6-27.28-.23-.14-.43-.26-.6-.36a443.311 443.311 0 003.05-2.8c1.32-1.22 2.46-2.28 3.52-3.21.62-.54 1.4-.44 2.31.04.28.15 3.5 2.16 6.21 3.8a931.51 931.51 0 0018.52 10.93c1.22.7 2.48 1.42 3.74 2.13zm-30.46-23.9c4.4 3.17 17.06 13.29 21.6 17.19.47.4.93.81 1.39 1.22a972.6 972.6 0 01-20.27-12.09c-1.36-.79-2.61-1.02-3.7-.08-1.08.94-2.22 2-3.55 3.23l-.43.4c0-.52.06-1.26.3-2.14.35-1.31 3.2-5.91 4.66-7.73zm-6.87 6.59c1.31-3.55 3.95-6.62 5.04-7.78.15.09.37.23.61.39.12.08.24.16.38.25-1.5 1.9-4.38 6.49-4.79 8.02-.4 1.49-.35 2.64-.29 3.15l-.64.63-.88.86-.02.02c-.4-1.85-.07-3.76.59-5.54zm-57.14 10.59c.43-.14.83-.13 1.7.64 1.71 1.5 11.03 8.97 27.27 8.97h.25c8.58-.04 17.67-5.08 22.85-9.39 1.44-1.2 2.75-2.34 3.96-3.42.1-.09.2-.18.3-.26l.01.01c.13.08.32.19.53.32l1.22.72c7.03 4.14 30.68 17.77 52.29 26.58-.5.25-1.11.36-1.89.34-.62.01-1.6-.15-2.85-.43-4.83-1.11-13.69-4.16-21.52-6.96-2.66-.95-5.21-1.88-7.44-2.69-3.69-1.34-6.6-2.4-8-2.85l-.73-.21c-2.04-.6-3.35-.86-4.55-.92l-.16-.01c-2.41-.07-4.31.29-9.77 2.75-13.65 6.13-28.42 8.05-42.97 5.64-.99-1.11-1.99-2.14-2.98-3.09-.27-.25-.53-.51-.79-.75-.13-.12-.27-.24-.41-.36-3.02-2.62-8.34-5.83-11.18-7.42.99-2.05 2.62-4.5 4.86-7.21zm-6.61 12.37c.54-2.27 1.04-3.63 1.31-4.27l.06.03c2.49 1.4 6.8 4 9.8 6.33.49.38.95.76 1.36 1.12.05.05.11.09.16.14.94.86 1.89 1.81 2.84 2.82.19.2.37.41.56.62.19.2.37.4.56.61 1.73 1.95 3.45 4.11 5.08 6.36l.37.52.38.53c2.03 2.89 3.89 5.89 5.42 8.76-5.49-.05-26.86-.22-29.87-.26-.03-.11-.05-.22-.05-.33-.06-11.58 1.04-18.82 2.02-22.98zm-2.27 24.59c.04-.11.08-.22.11-.29.28 0 .6.01.93.01 3.09.04 90.07.87 120.28 1.62 3.35.04 6.52.01 9.54-.07l1.06-.03c4.57-.13 8.76-.38 12.59-.71.76-.06 1.5-.13 2.23-.2 1.98-.19 3.86-.41 5.64-.63.49-.06.98-.13 1.45-.19 10.95-1.5 18.11-3.58 22.54-4.86 0 0 2.36-.77 3.55-1.19.33-.12.58-.21.64-.25.37 0 1.56.35 1.9.88l.08.1c.38.49.68.93.95 1.34-.22.08-.45.15-.68.23-8.15 2.78-17.69 4.53-26.73 5.64-.44.05-.89.11-1.33.16-1.24.14-2.48.28-3.69.4-.79.08-1.57.15-2.34.22-6.76.61-12.88.88-17.43 1l-1.06.03c-4.24.09-6.88.05-6.98.05l-123.71-1.57c.17-.65.32-1.28.46-1.69zm-.76 3.5c.01-.13.06-.45.13-.83l123.89 1.58c.05 0 .7.01 1.85.01 1.15 0 2.8-.01 4.83-.05.34-.01.69-.02 1.05-.02 5.06-.13 12.16-.44 19.96-1.21.81-.08 1.64-.17 2.47-.26.77-.08 1.54-.17 2.31-.27.4-.05.79-.09 1.19-.14 6.17-.78 12.56-1.85 18.57-3.35l-.32.09c-3.79 1.1-9.34 2.7-17.82 4.08-1.27.21-2.6.41-4 .6-6.15.85-13.63 1.57-22.8 1.95-.35.01-.7.03-1.06.04-.65.02-1.31.05-1.98.07-1.44.04-2.89.4-4.29.98-29.18-.45-122.92-1.98-123.97-2.14-.02-.36-.01-.82-.01-1.01v-.12zm112.15 16.52c0 .01-.01.02-.01.02-14.49-.24-34.83-.58-53.91-.89-28.31-.47-52.76-.88-53.42-.88-1.52 0-2.88-.42-2.96-.7-.13-.81-1.3-7.39-2.23-12.02.11.03.26.05.43.07 1.45.19 22.58.54 24.78.58 2.94.05 6.07.1 9.33.15.35.01.71.01 1.06.02 24.98.4 58.19.92 86.8 1.36-4.59 2.65-8.46 7.62-9.87 12.29zm74.01-19.67c-.05.25-.19.75-.37 1.38-.63 2.2-1.81 6.29-1.79 10.03 0 .49-.41.79-1.75 1.27-.12.04-7.27 2.47-19.34 4.49-6.78 1.14-15.12 2.14-24.63 2.52-4.12.23-7.94.29-11.32.24-.95-.02-2.06-.03-3.28-.05l-2.19.03c-3.2.04-6.9.09-8.4.11.03-.1.07-.21.11-.31 0-.01.01-.02.01-.02 1.59-4.94 5.98-10.16 10.96-12.28.93-.4 1.89-.7 2.85-.85.44-.07.87-.12 1.31-.13l1.66-.06c.35-.01.7-.02 1.05-.04 25.6-1.02 38.27-4.68 45.19-6.68.58-.17 1.12-.32 1.62-.46 3.05-.86 4.95-1.54 6.14-2.04.39-.16.7-.31.94-.43.06-.03.13-.07.19-.09.09-.05.17-.09.24-.13.24.56.59 1.57.75 2.44.05.4.09.78.05 1.06z" fill="#0f0f10"></path><g><path d="M723.87 380.77l-.02-.01.57-.96.11.04-.14 1.07-.01.05-.02-.01-.49-.18z" fill="none"></path></g><path d="M659.33 386.55l-.51-.01c-.21 0-.37-.17-.37-.38s.17-.37.38-.37h.01l.5.01c.21 0 .37.17.37.38-.01.21-.17.37-.38.37zm4-.06c-.2 0-.37-.16-.37-.36-.01-.21.15-.38.36-.39l.5-.02c.2-.02.38.15.39.36.01.21-.15.38-.36.39l-.5.02h-.02zm-8.5-.11h-.03l-.5-.03a.372.372 0 01-.35-.4c.01-.21.19-.36.4-.35l.5.03c.21.01.36.19.35.4-.01.2-.17.35-.37.35zm12.99-.21a.37.37 0 01-.37-.34c-.02-.21.13-.39.33-.41l.49-.05c.2-.02.39.12.41.33.02.21-.12.39-.33.41l-.5.05c0 .01-.02.01-.03.01zm-17.47-.21h-.05l-.5-.06a.371.371 0 01-.32-.42c.03-.21.22-.35.42-.32l.49.06c.21.02.35.21.33.42-.02.18-.18.32-.37.32zm21.92-.42c-.18 0-.34-.13-.37-.31-.04-.2.1-.4.3-.44l.49-.09c.2-.04.4.1.44.3.04.2-.1.4-.3.44l-.49.09c-.02.01-.04.01-.07.01zm4.39-.98c-.17 0-.32-.11-.36-.28a.38.38 0 01.27-.46l.48-.13c.2-.06.41.06.46.26s-.06.41-.26.46l-.48.13c-.04.02-.07.02-.11.02zm4.28-1.37c-.15 0-.29-.09-.35-.24a.37.37 0 01.22-.48l.46-.18c.19-.08.41.02.49.21a.38.38 0 01-.21.49l-.47.18c-.05.01-.09.02-.14.02zm4.13-1.8a.37.37 0 01-.34-.22.38.38 0 01.18-.5l.45-.21c.19-.09.41-.01.5.18.09.19 0 .41-.18.5l-.45.21c-.06.03-.11.04-.16.04zm4.07-1.91c-.14 0-.27-.08-.34-.21a.377.377 0 01.17-.5l.45-.22a.38.38 0 01.5.17c.09.19.01.41-.17.5l-.45.22c-.05.03-.11.04-.16.04zm4-2.04a.378.378 0 01-.18-.71l.43-.24c.18-.1.41-.03.51.15.1.18.03.41-.15.51l-.44.24c-.05.03-.11.05-.17.05zm3.88-2.28c-.12 0-.25-.06-.32-.17a.376.376 0 01.12-.52l.42-.27c.17-.11.41-.06.52.11.11.17.06.41-.11.52l-.42.27a.42.42 0 01-.21.06zm3.7-2.55a.37.37 0 01-.3-.15c-.12-.17-.09-.4.08-.52l.4-.3c.17-.12.4-.09.52.08.12.17.09.4-.08.52l-.4.3a.41.41 0 01-.22.07zm3.54-2.77a.379.379 0 01-.24-.67l.38-.32a.38.38 0 01.53.05c.13.16.11.4-.05.53l-.39.32c-.06.06-.15.09-.23.09z" fill="#0f0f10"></path><g><path d="M757.78 388.48c-.24.44-.94.53-1.56.19-.62-.34-.92-.97-.67-1.41.24-.44.87-.46 1.48-.11.62.33 1 .88.75 1.33z" fill="#0f0f10"></path><path d="M757 389.38c-.33 0-.67-.09-1.01-.27-.87-.48-1.25-1.4-.87-2.09.15-.28.4-.47.71-.56.43-.12.95-.03 1.45.25.92.52 1.31 1.34.94 2.01-.23.43-.7.66-1.22.66zm-.78-1.98c-.05 0-.09.01-.12.01-.07.02-.09.05-.11.08-.08.15.06.51.48.74.42.22.79.15.88.01.06-.11-.13-.42-.56-.66-.23-.13-.43-.18-.57-.18z"></path><path d="M741.83 380.95c-.24.44-.94.53-1.55.19-.62-.34-.92-.97-.67-1.41.24-.44.94-.53 1.55-.19.62.33.92.96.67 1.41z" fill="#0f0f10"></path><path d="M741.04 381.85c-.34 0-.69-.09-1.01-.27-.39-.21-.7-.53-.87-.89-.2-.41-.2-.85 0-1.2.38-.7 1.36-.87 2.23-.39.48.26.83.67.96 1.13.1.34.07.68-.09.97-.19.35-.56.59-1.02.64-.05 0-.12.01-.2.01zm-.64-2.02c-.18 0-.31.06-.36.14-.05.1 0 .23.03.29.08.17.25.33.45.44.2.11.43.16.62.14.06-.01.21-.04.26-.13.04-.07.02-.15.01-.21-.05-.15-.2-.37-.48-.53-.2-.1-.38-.14-.53-.14z"></path><path d="M749.65 384.84c-.24.44-.94.53-1.55.19-.62-.34-.92-.97-.67-1.41.24-.44.94-.53 1.55-.19.61.33.91.96.67 1.41z" fill="#0f0f10"></path><path d="M748.86 385.74c-.34 0-.69-.09-1.01-.27-.87-.48-1.25-1.4-.87-2.09.38-.7 1.36-.87 2.23-.39.48.26.83.67.96 1.13.1.34.07.68-.09.97-.19.35-.56.59-1.02.64-.06 0-.13.01-.2.01zm-.65-2.02c-.18 0-.31.06-.36.14-.08.15.06.51.48.73.2.11.43.16.62.14.06-.01.21-.03.26-.13.04-.07.02-.15.01-.21-.05-.15-.2-.37-.48-.53-.2-.1-.38-.14-.53-.14z"></path><path d="M733.72 377.39c-.24.44-.94.53-1.55.19-.62-.34-.92-.97-.68-1.41.24-.44.94-.53 1.56-.19.62.34.92.97.67 1.41z" fill="#0f0f10"></path><path d="M732.93 378.29c-.33 0-.68-.09-1.01-.27-.39-.21-.7-.53-.87-.89-.2-.41-.2-.85 0-1.2.19-.35.56-.59 1.02-.65.4-.05.83.04 1.22.25.48.26.83.67.96 1.13.1.34.07.68-.09.97-.16.28-.43.49-.77.59-.14.05-.3.07-.46.07zm-.64-2.02c-.03 0-.06 0-.09.01-.06.01-.21.04-.26.13-.05.1 0 .24.03.29.08.17.24.33.45.44.29.16.55.17.71.12.06-.02.13-.05.17-.11.04-.06.02-.15.01-.2-.04-.15-.2-.37-.48-.53-.19-.1-.38-.15-.54-.15z"></path><g><path d="M726.51 373.32c-.24.44-.94.53-1.55.19-.62-.34-.92-.97-.68-1.41.24-.44.94-.53 1.56-.19.61.33.92.97.67 1.41z" fill="#0f0f10"></path><path d="M725.72 374.22c-.33 0-.68-.09-1-.27-.87-.48-1.25-1.39-.87-2.09.2-.36.57-.59 1.02-.65.39-.05.83.04 1.22.26.48.26.83.67.96 1.13.1.34.07.68-.09.97-.16.28-.43.49-.77.59-.15.04-.31.06-.47.06zm-.65-2.02c-.03 0-.06 0-.09.01-.06.01-.21.04-.26.13-.08.15.07.51.48.73.29.16.55.17.71.12.06-.02.13-.05.17-.11.04-.06.02-.15.01-.2-.04-.15-.19-.37-.48-.53-.18-.1-.37-.15-.54-.15z"></path></g><g><path d="M718.51 369.23c-.24.45-.94.53-1.55.19-.62-.34-.92-.97-.67-1.41.24-.45.94-.53 1.56-.19.61.33.91.97.66 1.41z" fill="#fff"></path><path d="M717.73 370.13c-.33 0-.68-.09-1.01-.27-.39-.21-.7-.53-.87-.89-.2-.41-.2-.85 0-1.2.16-.29.43-.5.77-.59.45-.13.99-.06 1.47.21.48.26.83.67.96 1.13.1.34.07.68-.09.96-.19.35-.56.59-1.02.64-.07 0-.14.01-.21.01zm-.65-2.02c-.07 0-.13.01-.18.02-.06.02-.13.05-.17.12-.05.1 0 .24.03.29.08.17.25.33.45.44.2.11.43.16.62.14.06-.01.21-.03.26-.13.04-.06.02-.14.01-.2-.04-.15-.19-.37-.48-.53-.21-.11-.4-.15-.54-.15z"></path></g><g><path d="M701.96 360.66c-.03.6.44 1.1 1.03 1.13.6.03 1.1-.43 1.13-1.03.03-.6-.43-1.1-1.03-1.13-.6-.03-1.11.44-1.13 1.03z" fill="#fff"></path><path d="M703.04 362.3h-.07c-.87-.04-1.55-.78-1.51-1.65.04-.87.78-1.54 1.66-1.51.87.04 1.55.78 1.51 1.65-.05.84-.75 1.51-1.59 1.51zm-.58-1.61c-.01.32.24.59.56.61.32.03.6-.23.61-.56a.59.59 0 00-.56-.61c-.33-.01-.6.24-.61.56z"></path></g><g><path d="M709.41 364.28c-.03.6.44 1.1 1.03 1.13.6.03 1.1-.44 1.13-1.03.03-.6-.43-1.1-1.03-1.13-.6-.03-1.1.43-1.13 1.03z" fill="#fff"></path><path d="M710.49 365.91h-.07c-.87-.04-1.55-.78-1.51-1.65.04-.87.8-1.54 1.66-1.51.87.04 1.55.78 1.51 1.65-.05.85-.75 1.51-1.59 1.51zm-.58-1.61c-.01.32.24.6.56.61.34.02.6-.23.61-.56a.59.59 0 00-.56-.61c-.3-.01-.6.24-.61.56z"></path></g></g><g fill="#fff" stroke="#0f0f10"><path d="M726.04 365.84s.34.18.69.39c.35.21.52.45.62.97.1.52-.07 1.35-.07 1.35l-2.88-1.63.03-.76 1.61-.32zM732.19 370.31c.19-.04.85.7.85.7.17.14.55.55.55.55l.03.45-2.29-1.35c.01 0-.13-.16.86-.35z"></path></g><g><path d="M760.89 385.42s-.81.1-1.27.8c-.92 1.41-1.54 2.11-1.9 2.15-.14.01-.56.04-.76.05-.18.01-.12-.38-.3-.42-.18-.05-.62.25-.76.1-.18-.2-.48-1.51-.48-2 0-1.61.63-1.5.96-1.85.78-.86 4.13-.23 4.51 1.17z" fill="#fff"></path><path d="M756.95 388.92c-.18 0-.4-.07-.54-.36-.24.08-.61.16-.88-.13-.33-.36-.61-1.88-.61-2.33 0-1.39.46-1.79.93-2.08.07-.04.13-.08.16-.11.61-.67 1.97-.63 2.95-.4 1.3.31 2.2.98 2.41 1.78l.15.56-.57.07c-.02 0-.6.09-.91.58-1.25 1.91-1.79 2.32-2.27 2.37-.14.02-.58.04-.79.05h-.03zm-.32-.43zm-.02-1c.06 0 .11.01.17.02.25.06.38.24.44.39.17-.01.36-.02.44-.03.04-.02.42-.22 1.54-1.93.26-.41.62-.65.93-.8-.3-.27-.8-.52-1.41-.66-.96-.23-1.77-.13-1.98.1-.13.14-.27.22-.38.29-.24.15-.45.27-.45 1.22 0 .33.16 1.08.29 1.48.13-.03.27-.08.41-.08z" fill="#0f0f10"></path><path d="M753.61 381.43s.09.61-.47.75c-.32.08-.65-.03-1.28.5-.44.37-1.41 1.57-1.97 2.08-.4.37-1.04.05-1.25-.1-.09-.07-.12-.68-.2-.77-.11-.11-.42.49-.51.36-.22-.32-.5-.82-.5-1.13 0-.75.54-2.01.86-2.44.32-.43.76-.75 1.83-.75 1.09-.01 2.09.64 3.49 1.5z" fill="#fff"></path><path d="M749.42 385.43c-.41 0-.82-.18-1.08-.37a.596.596 0 01-.21-.31.4.4 0 01-.19.02l-.25-.01-.17-.22c-.22-.32-.59-.93-.59-1.42 0-.88.58-2.23.96-2.74.5-.67 1.17-.95 2.23-.95 1.18 0 2.24.65 3.58 1.48l.36.22.04.23c.07.43-.1 1.13-.84 1.31-.1.03-.2.04-.31.05-.22.02-.41.04-.78.35-.2.17-.56.57-.91.96-.37.41-.75.84-1.05 1.11-.23.21-.51.29-.79.29zm-.37-1.11c.17.08.4.15.5.07.26-.24.62-.65.98-1.04.39-.43.75-.84 1.01-1.05.6-.5 1.03-.55 1.32-.58.06-.01.11-.01.17-.02.01 0 .03-.01.04-.02-1.19-.73-2.06-1.25-2.93-1.25-.94 0-1.21.26-1.43.55-.29.38-.76 1.54-.76 2.14 0 .06.04.19.13.37.09-.06.2-.11.33-.11l.22-.01.19.17c.15.16.19.36.23.64a.33.33 0 000 .14z" fill="#0f0f10"></path><path d="M746.17 377.79s.07.61-.5.73c-.33.07-.92 0-1.58.51-.46.35-1.47 1.5-2.06 1.99-.42.35-1.04.01-1.24-.15-.09-.07.07-.38-.01-.47-.1-.11-.6.16-.68.03-.21-.33-.46-.84-.45-1.15.03-.75.83-1.75 1.17-2.17.34-.42.58-.95 1.66-.91 1.09.05 2.33.67 3.69 1.59z" fill="#fff"></path><path d="M741.6 381.67c-.43 0-.86-.2-1.12-.42a.55.55 0 01-.19-.3c-.2.02-.45-.01-.61-.26-.2-.33-.54-.95-.52-1.44.04-.85.75-1.81 1.29-2.46l.12-.15c.32-.42.78-.99 1.95-.94 1.07.05 2.32.58 3.94 1.67l.19.13.03.23c.05.43-.15 1.12-.9 1.27-.08.02-.18.03-.3.04-.32.03-.67.07-1.07.38-.21.16-.59.55-.96.92-.38.39-.78.8-1.08 1.05-.24.2-.51.28-.77.28zm-.3-1.08c.15.07.33.11.41.05.27-.22.65-.61 1.01-.99.41-.42.8-.82 1.06-1.02.63-.48 1.23-.54 1.58-.58.08-.01.14-.01.2-.02.01 0 .02-.01.04-.01-1.3-.85-2.33-1.28-3.14-1.31-.69-.02-.85.2-1.11.54l-.14.18c-.85 1.04-1.05 1.59-1.06 1.87 0 .08.07.31.23.62.22-.05.54-.11.77.15.16.16.17.36.15.52zm-.19-.12s0 .01 0 0c0 .01 0 0 0 0zm-.58-.31z" fill="#0f0f10"></path><g><path d="M738.62 373.97s.52.59-.05.7c-.33.07-1.22.2-1.88.7-.46.35-2.25 1.59-2.84 2.08-.42.35-1.04.01-1.24-.15-.09-.07.07-.38-.01-.47-.1-.11-.6.16-.68.03-.21-.33-.46-.84-.45-1.15.03-.75 1.91-2.03 2.25-2.45.34-.42 1.09-.75 2.16-.7 1.09.05 1.38.49 2.74 1.41z" fill="#fff"></path><path d="M733.43 378.11c-.43 0-.86-.21-1.12-.42a.55.55 0 01-.19-.3c-.21.02-.45-.02-.6-.26-.21-.33-.55-.95-.53-1.44.03-.69.8-1.4 1.81-2.25.23-.19.48-.41.55-.5.5-.6 1.46-.93 2.57-.89.97.04 1.43.38 2.18.93.22.16.48.35.8.57l.09.08c.11.12.46.56.31 1.02-.05.15-.2.42-.63.51l-.11.02c-.34.07-1.06.2-1.56.59-.17.13-.54.39-.96.69-.67.48-1.51 1.08-1.86 1.37-.23.2-.49.28-.75.28zm-.3-1.08c.15.07.33.11.41.05.38-.32 1.2-.9 1.93-1.42.41-.29.76-.54.93-.67.58-.45 1.29-.64 1.75-.73-.24-.17-.45-.32-.63-.45-.7-.51-.97-.71-1.64-.74-.94-.04-1.52.24-1.75.52-.13.16-.36.35-.68.62-.39.33-1.43 1.2-1.46 1.53 0 .08.07.31.23.62.22-.06.54-.11.77.15.15.16.16.36.14.52zm-.19-.12z" fill="#0f0f10"></path></g><g><path d="M732.24 369.6s.52.59-.05.7c-.33.07-1.22.2-1.88.7-.46.35-2.96 1.92-3.54 2.41-.42.35-1.04.01-1.24-.15-.09-.07-.16-.38-.24-.47-.1-.11-.36.16-.44.03-.21-.33-.46-.84-.45-1.15.03-.75 2.62-2.36 2.96-2.78.34-.42 1.09-.75 2.16-.7 1.07.05 1.36.49 2.72 1.41z" fill="#fff"></path><path d="M726.34 374.07c-.43 0-.86-.2-1.12-.42a.765.765 0 01-.22-.31.573.573 0 01-.58-.25c-.2-.33-.54-.95-.52-1.44.03-.69.97-1.46 2.3-2.46.31-.23.69-.52.77-.61.5-.6 1.45-.93 2.57-.89.97.04 1.43.38 2.18.93.22.16.48.35.8.57l.09.08c.11.12.46.56.31 1.02-.05.15-.2.42-.63.51l-.11.02c-.34.07-1.06.2-1.56.59-.19.15-.74.51-1.36.92-.82.54-1.85 1.21-2.17 1.48a1.2 1.2 0 01-.75.26zm-.45-1.16c.16.11.45.22.55.12.37-.31 1.37-.97 2.26-1.55.59-.39 1.11-.73 1.3-.87.58-.45 1.29-.64 1.75-.73-.24-.17-.45-.32-.63-.45-.71-.51-.97-.71-1.64-.74-.95-.03-1.52.24-1.75.52-.14.17-.42.38-.94.78-.54.41-1.82 1.37-1.91 1.73 0 .06.07.28.22.57.23-.04.41.02.55.18.1.11.15.24.2.36.02.02.03.05.04.08zm-.62-.35z" fill="#0f0f10"></path></g><g><path d="M726.09 365.13s.52.59-.05.7c-.33.07-2.3.11-2.96.61-.46.35-3.9 2.44-4.48 2.92-.42.35-1.04.01-1.24-.15-.09-.07-.16-.38-.24-.47-.1-.11-.36.16-.44.03-.21-.33-.46-.84-.45-1.15.03-.75 4.03-2.88 4.37-3.29.34-.42 1.7-.66 2.77-.61 1.07.05 1.36.49 2.72 1.41z" fill="#fff"></path><path d="M718.17 370.02c-.43 0-.86-.2-1.12-.42a.765.765 0 01-.22-.31c-.35.04-.51-.15-.58-.26-.2-.33-.55-.95-.52-1.44.03-.64.88-1.29 3.26-2.78.5-.31 1.12-.7 1.23-.82.53-.65 2.19-.82 3.17-.78.97.04 1.43.38 2.18.93.22.16.48.35.8.57l.09.08c.11.12.46.56.31 1.02-.05.15-.2.42-.63.51-.08.02-.26.03-.5.05-.56.05-1.87.16-2.26.46-.2.16-.8.54-1.77 1.15-1.06.67-2.38 1.5-2.69 1.77-.22.2-.49.27-.75.27zm-.44-1.16c.16.11.45.22.55.12.34-.28 1.37-.94 2.8-1.84.75-.47 1.52-.96 1.69-1.09.58-.44 1.74-.58 2.78-.67h.01c-.22-.16-.42-.3-.59-.42-.71-.51-.97-.71-1.64-.74-1.1-.05-2.19.23-2.36.43-.16.19-.5.42-1.46 1.02-.85.54-2.63 1.65-2.81 2.05.01.03.08.24.23.52.23-.04.41.02.55.17.1.11.15.24.2.36.02.04.04.07.05.09zm-.63-.35z" fill="#0f0f10"></path></g></g><g fill="#0f0f10"><path d="M764.39 399.57c-.04 0-.07-.01-.11-.02a.375.375 0 01-.25-.47l.15-.48c.06-.2.27-.31.47-.25.2.06.31.27.25.47l-.15.48c-.06.16-.2.27-.36.27zm1.27-4.32c-.03 0-.07 0-.1-.01a.366.366 0 01-.26-.46l.13-.48c.05-.2.26-.32.46-.27.2.05.32.26.27.46l-.13.48c-.05.17-.2.28-.37.28zm.85-4.41h-.03a.37.37 0 01-.34-.4l.03-.49c.01-.21.19-.37.39-.36.21.01.37.19.36.39l-.03.51c-.02.2-.18.35-.38.35zM766.58 400.25c-.04 0-.07-.01-.11-.02a.375.375 0 01-.25-.47l.15-.48c.06-.2.27-.31.47-.25.2.06.31.27.25.47l-.15.48c-.05.16-.2.27-.36.27zm1.28-4.32c-.03 0-.07 0-.1-.01a.366.366 0 01-.26-.46l.13-.48c.05-.2.26-.32.46-.27.2.05.32.26.27.46l-.13.48c-.06.17-.21.28-.37.28zm.85-4.41h-.03a.37.37 0 01-.34-.4l.03-.49c.01-.21.19-.37.39-.36.21.01.37.19.36.39l-.03.51c-.03.2-.19.35-.38.35z"></path></g><g><path d="M712.2 399.97c-.14 0-.27-.07-.33-.2a.376.376 0 01.16-.5l.45-.23c.19-.09.41-.01.5.17.09.19.02.41-.17.5l-.44.22c-.05.03-.11.04-.17.04zm35.74-1.36h-.04l-.5-.06a.371.371 0 01-.32-.42c.03-.21.22-.35.42-.32l.49.06c.21.02.35.21.33.41-.03.18-.19.33-.38.33zm-31.61-.4c-.16 0-.3-.1-.35-.25a.38.38 0 01.23-.48l.48-.16c.2-.07.41.04.47.24.06.2-.04.41-.24.47l-.47.16a.43.43 0 01-.12.02zm27.17-.35c-.02 0-.05 0-.07-.01l-.49-.1c-.2-.04-.34-.24-.3-.44s.24-.34.44-.3l.49.1c.2.04.34.24.3.44-.04.19-.2.31-.37.31zm8.21-.22a.37.37 0 01-.34-.22.38.38 0 01.18-.5l.46-.21c.19-.08.41 0 .5.19.08.19 0 .41-.19.5l-.45.21c-.05.02-.1.03-.16.03zm-31.04-.62c-.17 0-.33-.12-.37-.3-.04-.2.09-.4.29-.44l.5-.1c.2-.04.4.09.44.3s-.09.4-.3.44l-.49.1h-.07zm18.4-.01c-.02 0-.05 0-.07-.01l-.49-.09a.381.381 0 01-.31-.43c.03-.2.23-.34.43-.31l.5.09c.2.04.34.23.3.44-.02.18-.18.31-.36.31zm-4.46-.58h-.03l-.5-.04a.37.37 0 01-.34-.4c.02-.21.2-.36.4-.34l.5.04c.21.02.36.2.34.41a.37.37 0 01-.37.33zm-9.49-.06a.37.37 0 01-.37-.34c-.02-.21.13-.39.34-.41l.5-.04c.22 0 .39.14.4.34.02.21-.14.39-.34.4l-.49.04c-.02.01-.03.01-.04.01zm4.99-.18h-.5c-.21 0-.37-.17-.37-.38s.17-.37.38-.37h.5c.21 0 .37.17.37.38s-.17.37-.38.37zm25.75-.29c-.15 0-.29-.09-.35-.24a.37.37 0 01.22-.48l.47-.18c.2-.07.41.03.48.22s-.03.41-.22.48l-.46.17c-.05.02-.1.03-.14.03zm4.27-1.41c-.17 0-.32-.11-.36-.28-.05-.2.07-.4.27-.46.33-.09.5-.12.5-.12.21-.04.4.09.44.29.04.2-.09.4-.29.44-.01 0-.16.03-.47.11-.03.01-.06.02-.09.02zM747.76 401.16h-.05l-.5-.07a.371.371 0 01-.32-.42c.03-.21.22-.35.42-.32l.49.06c.21.02.35.21.33.42a.37.37 0 01-.37.33zm-31.6-.29a.376.376 0 01-.12-.73l.48-.17c.2-.06.41.04.48.24.07.2-.04.41-.24.48l-.47.16c-.04.01-.09.02-.13.02zm27.16-.47c-.02 0-.05 0-.07-.01l-.49-.1a.382.382 0 01-.3-.44c.04-.2.24-.33.44-.3l.49.1c.2.04.34.24.3.44-.04.19-.2.31-.37.31zm8.23-.08a.37.37 0 01-.34-.22.372.372 0 01.18-.5l.46-.21c.19-.09.41 0 .5.18.09.19 0 .41-.18.5l-.45.21c-.06.03-.11.04-.17.04zm-31.06-.67c-.17 0-.33-.12-.37-.3-.04-.2.09-.4.29-.44l.5-.1c.2-.04.4.09.44.29.04.2-.09.4-.29.44l-.49.1c-.03.01-.05.01-.08.01zm18.4-.1c-.02 0-.04 0-.07-.01l-.49-.08a.381.381 0 01-.31-.43c.03-.2.23-.34.43-.31l.5.09c.2.04.34.23.3.44-.02.17-.18.3-.36.3zm-4.46-.56h-.03l-.5-.04a.37.37 0 01-.34-.4c.02-.21.2-.35.4-.34l.5.04c.21.02.36.2.34.41a.37.37 0 01-.37.33zm-9.49-.02c-.19 0-.35-.15-.37-.34-.02-.21.13-.39.34-.41l.5-.05c.21-.02.39.14.41.34a.38.38 0 01-.34.41l-.49.04c-.03.01-.04.01-.05.01zm4.99-.2h-.5a.38.38 0 110-.76h.5c.21 0 .37.17.37.38.01.21-.16.38-.37.38zm25.75-.23a.38.38 0 01-.14-.73l.47-.18c.19-.07.41.02.48.22s-.02.41-.22.48l-.46.18a.25.25 0 01-.13.03zm4.26-1.46c-.17 0-.32-.11-.36-.28-.05-.2.06-.41.26-.46.33-.09.5-.13.5-.13.2-.04.4.08.45.29.04.2-.08.4-.29.45-.01 0-.16.04-.47.12-.02.01-.06.01-.09.01z"></path></g><g><g fill="#0f0f10"><path d="M650.81 394.9c-.12 0-.24-.06-.31-.17l-.28-.41c-.12-.17-.07-.4.1-.52.17-.11.41-.07.52.1l.28.42c.11.17.07.41-.11.52-.05.04-.12.06-.2.06zm-2.58-3.7c-.12 0-.23-.05-.3-.15l-.3-.4c-.12-.17-.09-.4.08-.52.17-.12.4-.09.52.08l.3.4c.12.17.09.4-.08.52a.34.34 0 01-.22.07zm-2.76-3.55a.37.37 0 01-.29-.14l-.32-.38c-.13-.16-.11-.4.05-.53s.4-.11.53.05l.32.39c.13.16.11.4-.05.53-.07.05-.15.08-.24.08zm-2.95-3.4c-.1 0-.2-.04-.27-.12l-.34-.36a.369.369 0 01.02-.53c.15-.14.39-.14.53.02l.34.37c.14.15.13.39-.02.53-.08.06-.17.09-.26.09zm-3.2-3.17c-.09 0-.18-.03-.25-.1-.12-.11-.24-.21-.37-.32a.369.369 0 01-.04-.53.37.37 0 01.53-.04c.13.11.26.22.38.33.15.14.17.37.03.53-.07.09-.18.13-.28.13zm-3.56-2.76c-.07 0-.15-.02-.22-.07l-.41-.29a.37.37 0 01-.09-.52.37.37 0 01.52-.09l.41.29c.17.12.21.35.09.52-.06.11-.18.16-.3.16zm-3.73-2.52a.42.42 0 01-.21-.06l-.42-.27a.383.383 0 01-.11-.52c.11-.17.35-.22.52-.11l.42.27c.17.11.22.35.11.52-.06.11-.18.17-.31.17zM647.58 396.48c-.12 0-.24-.06-.31-.17l-.28-.41c-.12-.17-.07-.4.1-.52.17-.11.41-.07.52.1l.28.42a.374.374 0 01-.31.58zm-2.58-3.69c-.12 0-.23-.05-.3-.15l-.3-.4c-.12-.17-.09-.4.08-.52.17-.12.4-.09.52.08l.3.4c.12.17.09.4-.08.52a.34.34 0 01-.22.07zm-2.76-3.56a.37.37 0 01-.29-.14l-.32-.38c-.13-.16-.11-.4.05-.53a.38.38 0 01.53.05l.32.39c.13.16.11.4-.05.53-.07.06-.16.08-.24.08zm-2.96-3.39c-.1 0-.2-.04-.27-.12l-.34-.36a.369.369 0 01.02-.53c.15-.14.39-.13.53.02l.34.37c.14.15.13.39-.02.53-.07.05-.16.09-.26.09zm-3.19-3.17c-.09 0-.18-.03-.25-.1-.12-.11-.24-.22-.37-.32a.369.369 0 01-.04-.53.37.37 0 01.53-.04c.13.11.26.22.38.33.15.14.17.38.03.53-.08.09-.18.13-.28.13zm-3.55-2.76c-.07 0-.15-.02-.21-.07l-.41-.28a.382.382 0 01-.1-.52c.12-.17.35-.21.52-.1l.41.29c.17.12.21.35.09.52a.38.38 0 01-.3.16z"></path></g><path d="M649.61 399.85a.377.377 0 01-.35-.19l-.25-.43a.363.363 0 01.13-.51c.18-.11.41-.05.51.13l.26.43c.1.18.04.41-.13.51-.05.04-.11.05-.17.06z"></path><path d="M653.23 398.71a.388.388 0 01-.35-.18l-.26-.43a.383.383 0 01.12-.52c.18-.11.41-.05.52.12l.26.43c.11.18.05.41-.13.51-.04.05-.1.07-.16.07z" fill="#0f0f10"></path></g></svg>