<svg xmlns="http://www.w3.org/2000/svg" id="i-shoe-style-sk8-hi" viewBox="625.88 336.29 188.13 95.06"><path d="M629.06 414.52s-.33-.19-.44.22c-.11.41.02 1 .25 1.28.22.27.36 1.23.31 1.68-.05.45-.14.63-.14.63s.51 1.46-.41-.18c-.76-1.37-1.07-2.73-.71-3.23.37-.5.37-.81 1.14-.4z" fill="#020202"></path><path d="M628.92 414.98l-.06-.52c.02.14.04.32.06.52zm-.07-.64c-.01-.11-.02-.23-.04-.34.01.07.02.18.04.34z" fill="#bfc3c1" stroke="#231f20"></path><path d="M812.36 406.24s-.06.05-.21.15c-.67-1.23-1.6-2.4-1.64-2.45-.49-.75-2.06-1.19-2.49-1.08 0 0-.11.1-.62.31-2.51-.52-21.66-2.12-32.65-3.13-1.83-1.85-3.99-3.19-6.51-3.64-1.99-.35-12.98-1.79-20.64-3.77-6.66-2.27-12.89-4.62-15.51-6.23-12.85-7.93-20.57-18.27-25.53-29.14-4.72-10.33-10.34-20.38-10.34-20.38s-1.46.31-4.06 1.49c-2.14.97-7.35 3.24-10.44 5.99-12.16-.13-35.98-.15-44.02-.02-.82.01-1.32.22-1.63.62-.58.56-1.68 1.88-2.11 4.16-.91 4.85-.26 6.18-.26 6.18s-.53.3-.99 4.97c-.51 5.22.08 5.91.08 5.91s-.96 1.15-.88 5.45c.1 5.25.54 5.6.54 5.6s-4.94 11.52-3.89 32.08h-.2c-.5-.01-1.18 4.1-1.17 4.25 0 .05-.02.93.03 1.42v.08c-.01-.01-.03-.03-.03-.04l-.05-.19c-.36.29-.38.58-.35.7.93 4.61 2.12 11.35 2.25 12.14.13.79 2.21 1.11 3.44 1.11 1.11 0 71.98 1.19 107.21 1.77-.03.11-.07.22-.1.33 0 0 13.87-.2 14.45-.19 30.41.48 52.39-6.15 55.23-7.16 1.27-.45 2.08-.85 2.08-1.73-.03-4.73 1.93-10.07 2.15-11.27.22-1.32-1.01-4.32-1.14-4.29z" fill="#fff"></path><g fill="none"><path d="M749.16 417.99c-37.25-.58-82.34-1.29-106.66-1.68-10.77-.17-14.08-.24-15.18-.48.92 4.56 2.08 11.14 2.21 11.96.08.27 1.44.69 2.95.69.65 0 24.65.4 52.44.86 19.21.32 39.79.66 54.4.9 1.41-4.64 5.26-9.6 9.84-12.25zM751.11 417.02c1.4-.58 2.84-.93 4.27-.97 27.17-.85 40.35-4.66 47.43-6.71.58-.17 1.12-.32 1.62-.47 4.27-1.2 6.21-2.04 7.03-2.47-.32-.54-.74-1.17-1.3-1.89l-.08-.1c-.34-.52-1.52-.87-1.89-.87-.31.19-1.14.56-3.29 1.18l-.88.26c-7.82 2.27-24.09 6.99-54.81 6.67-37.55-.94-81.78-1.3-105.54-1.49-6.9-.06-12.15-.1-15.11-.14-.33.65-.82 3.27-.87 3.76v.12c0 .21-.01.64.01.99 1.1.17 5.83.27 14.81.42 24.75.4 70.99 1.13 108.6 1.71z"></path></g><g stroke="#0f0f10"><path d="M626.38 417.6s.33-.2.41-.2c.27 0 .55.09 1.23.14.77 2.66 1.89 8.41 1.89 8.41l-.16.12-1.14-.39-2.23-8.08z"></path><path d="M626.39 417.6c.08-.03.57.19 1.39.24.77 2.66 1.84 8.23 1.84 8.23s-1.29-.22-1.4-.23c-.11 0-.16-.18-.16-.18s-.81-5.31-1.67-8.06z"></path></g><path d="M627.83 412.99c-.07.36-.11.66-.12.79v.12c0 .21-.01.64.01.99.18.03.45.05.81.08-.09-.56-.16-1.21-.22-1.97l-.48-.01zM628.19 411.27c-.06.24-.11.48-.17.72h.21v-.01c-.01-.24-.03-.47-.04-.71zM642.52 415.31c24.74.4 70.98 1.13 108.59 1.71 1.4-.58 2.84-.93 4.27-.97 21.3-.67 34-3.15 41.91-5.18-21.49 3.91-48.59 4.02-48.94 4.02l-119.04-1.88c.06.81.12 1.47.23 2.01 2.29.1 6.54.19 12.98.29z" fill="none"></path><path d="M812.19 407.15c-.07.04-.15.08-.24.13-.94.49-2.97 1.35-7.23 2.55-.5.14-1.04.3-1.62.46-7.12 2.06-20.39 5.9-47.68 6.75-.43.01-.87.06-1.3.13-.95.15-1.9.45-2.83.85-3.66 1.56-6.99 4.8-9.13 8.36-.2.33-.39.66-.56 1-.5.96-.92 1.93-1.23 2.88-.03.1-.07.21-.1.31 1.49-.02 5.18-.07 8.37-.11 2.78-.04 5.19-.07 5.43-.07 32.55.51 54.84-7.05 55.05-7.13 1.34-.47 1.75-.77 1.74-1.26-.02-3.71 1.15-7.79 1.78-9.98.18-.62.32-1.12.37-1.37.04-.28.01-.66-.07-1.07-.17-.86-.51-1.87-.75-2.43z" fill="none"></path><path d="M765.42 414.17c-1.28.31-2.76.81-4.36 1.41 6.01-.3 11.26-.75 15.85-1.28-1.46-.26-3.41-.52-5.5-.6-1.86.13-3.66.25-5.38.35l-.61.12zM797.29 410.64c-5.66 1.03-11.7 1.79-17.54 2.36.08.31.15.61.23.92 7.51-.99 13.1-2.2 17.31-3.28zM811.38 406.04c-.31-.51-.7-1.09-1.21-1.76l-.08-.1c-.34-.52-1.52-.87-1.89-.87-.31.19-1.14.56-3.29 1.18l-.88.26c-4.77 1.39-12.71 3.69-25.15 5.19.22.67.43 1.36.63 2.08 11.3-1.09 23.37-2.92 31.87-5.98zM778.9 413.67c-.05-.2-.1-.38-.15-.57-.64.06-1.28.12-1.91.17.85.15 1.56.29 2.06.4z" fill="none"></path><path d="M811.02 406.17l.36-.12c-.31-.51-.7-1.09-1.21-1.76l-.08-.1c-.14-.21-.42-.4-.73-.54.77.69 1.3 1.64 1.66 2.52zM701.27 352.85l.75 1.18c3.29 5.17 13.29 20.89 17.15 24.47 3.71 3.44 7.54 5.63 10.94 7.22-10.65-7-18.52-16.25-23.99-28.25-4.17-9.15-9.13-18.17-10.14-20.01-.57.16-1.81.55-3.6 1.36l-.43.19c-1.94.88-5.7 2.58-8.53 4.63.95.01 1.81.03 2.55.04 6.93-.07 9.84.65 15.3 9.17zM768.32 397.68c1.23.32 2.37.86 3.45 1.57.49.05 1.02.1 1.57.15-1.49-1.25-3.2-2.17-5.17-2.52-.4-.07-1.17-.19-2.21-.34-1.34-.2-3.11-.47-5.12-.79 1.44.37 2.81.72 4.04 1.04 1.33.34 2.49.64 3.44.89zM767.33 400c.15-.05.3-.11.44-.15-.21-.03-.39-.05-.52-.07.01.05.05.14.08.22z" fill="none"></path><path d="M714.36 387.98c-2.7-2.17-5.62-5.56-8.59-9.54-1.09-.95-2.2-1.91-3.3-2.87 3.87 5.53 7.74 10.36 11.26 13.2 3.53 2.84 7.26 4.8 12.76 7.22-.97-.79-1.96-1.61-2.96-2.44-3.7-1.77-6.46-3.39-9.17-5.57z" fill="#0f0f10"></path><path d="M703.21 374.89c-1.02-.89-2.02-1.77-3-2.63.75 1.12 1.5 2.22 2.25 3.3 1.1.96 2.21 1.92 3.3 2.87-.84-1.13-1.69-2.32-2.55-3.54z" fill="#0f0f10"></path><path d="M736.56 402.65a6.007 6.007 0 00-2.95-3.63c-3.27 2.85-6.4 3.6-12.2.26-8.16-4.69-12.93-7.9-21.57-13.73l-.14-.09c-9.27-6.25-14.24-5.69-27.18-2.32-9.81 2.55-24.22 3.22-34.63 2.48.49 2.07 1.13 4.21 1.87 6.37 10.76.56 24.45-.22 34.68-2.92 5.33-1.41 8.84-2.21 11.76-2.21 3.48 0 6.12 1.14 10.02 3.77l.13.09c8.77 5.91 13.59 9.16 21.95 13.97 3.44 1.98 6.67 3 9.59 3.03 3.55.02 6.42-1.37 8.9-3.3 0-.12.01-.24 0-.36-.02-.5-.1-.97-.23-1.41z" fill="none"></path><g><path d="M639.03 392.95c-.12-.34-.23-.68-.35-1.03-.72-2.16-1.36-4.32-1.84-6.39-.08-.34-.15-.68-.22-1.02-.03-.14-.07-.29-.09-.43-3.16-15.84-.63-33.89.27-39.3-.02.01-.05.01-.07.03a.78.78 0 00-.29.28c-.34.33-.9.98-1.36 1.98-.25.54-.47 1.17-.61 1.91-.85 4.51-.3 5.86-.3 5.88l.18.41-.29.18c-.09.18-.48 1.09-.83 4.64-.46 4.65-.02 5.55 0 5.59l.28.32-.31.27s-.84 1.15-.76 5.12c.08 4.02.36 5.08.44 5.29l.21.17-.15.35c-.05.12-4.83 11.57-3.87 31.6 3.03.04 8.07.08 14.63.13.69.01 1.41.01 2.14.02-.29-.6-.58-1.2-.87-1.79-1.9-3.98-4.15-9.08-5.94-14.21z" fill="none"></path><path d="M812.73 405.87l-.21-.19-.17.03c-.43-.72-.94-1.44-1.43-2.09-.63-.94-2.4-1.44-3.02-1.28l-.09.01-.09.08c-.01.01-.11.07-.41.2-2.38-.42-13.01-1.36-23.32-2.28-3.21-.28-6.34-.56-9.02-.81-1.83-1.82-4.02-3.19-6.64-3.65-.41-.07-1.19-.19-2.24-.35-4.07-.61-12.23-1.84-18.31-3.4-6.64-2.26-12.85-4.6-15.43-6.19-11.37-7.01-19.65-16.47-25.33-28.92-4.67-10.23-10.31-20.31-10.36-20.42l-.18-.32-.36.08c-.06.01-1.54.33-4.16 1.52l-.43.19c-2.21 1-6.71 3.04-9.71 5.53-12.23-.13-36.29-.15-44.12-.02-.68.01-1.18.15-1.55.4l-.01.01c-.16.11-.31.22-.42.37-.63.62-1.8 2.02-2.25 4.42-.72 3.83-.49 5.56-.32 6.19-.26.5-.61 1.75-.93 5-.37 3.74-.19 5.28.02 5.92-.31.57-.88 2.1-.82 5.5.07 3.68.31 5.06.5 5.61-.65 1.66-4.77 13.05-3.86 31.88-.05.03-.1.05-.15.1-.65.67-1.21 4.4-1.21 4.55v.98c-.47.45-.43.92-.4 1.07.92 4.58 2.11 11.29 2.25 12.12.25 1.52 3.78 1.53 3.93 1.53.64 0 25.8.42 52.43.86 19.09.32 39.54.66 54.13.9l-.09.35.65-.01c.14 0 13.85-.22 14.43-.19 32.73.52 55.19-7.11 55.4-7.19 1.02-.36 2.42-.86 2.41-2.21-.02-3.57 1.13-7.56 1.75-9.7.2-.68.34-1.17.39-1.47v-.01c.24-1.38-.9-4.36-1.25-4.7zm-51.9-10.12c2 .32 3.78.59 5.12.79 1.04.16 1.81.27 2.21.34 1.97.35 3.68 1.27 5.17 2.52-.55-.05-1.08-.1-1.57-.15-.87-.08-1.64-.16-2.29-.23-1.55-.46-6.86-2.05-13.06-4.03 1.54.29 3.03.54 4.42.76zm-68.88-56.73l.43-.19c1.79-.81 3.03-1.2 3.6-1.36 1.01 1.83 5.97 10.86 10.14 20.01 5.47 11.99 13.34 21.25 23.99 28.25-3.4-1.59-7.23-3.78-10.94-7.22-3.86-3.58-13.86-19.3-17.15-24.47l-.75-1.18c-5.46-8.52-8.38-9.24-15.31-9.16-.74-.01-1.6-.03-2.55-.04 2.83-2.06 6.6-3.76 8.54-4.64zm-54.14 5.59c8.11-.13 46.77.06 47.73.07.22 1.21 1.15 4.96 4.63 11.4.18.33 2 3.54 2.87 4.95 2.3 3.71 4.72 7.56 7.17 11.22.98.86 1.98 1.74 3 2.63-3.17-4.55-6.35-9.58-9.33-14.38-.75-1.21-2.4-4.09-2.58-4.41-3.42-6.24-4.46-10.04-4.75-11.39v-.02c1.79-.02 3.28.03 4.65.32 3.12.67 5.56 2.68 9.21 8.38 0 0 14.11 22.18 18.06 25.84 5.65 5.24 11.54 7.63 15.84 9.38.71.29 1.38.56 2 .83 2.27.97 5.58 2.07 9.27 3.17.33.1.66.2 1 .29.59.17 1.18.34 1.78.52 6.81 2.3 13.89 4.48 17.94 5.7.73.22 2.75.86 3.72.96.42.04.89.09 1.38.13.57.05 1.17.11 1.83.17.41.04.85.08 1.29.12.47.04.96.09 1.47.13 2.38.22 5.08.46 7.91.71 8.14.72 17.14 1.52 21.31 2.01-.19.06-.37.11-.58.17l-.89.26c-4.49 1.3-11.8 3.43-23.06 4.92-.33.04-.68.09-1.02.13-.37.05-.74.1-1.12.14-.34.04-.67.08-1.02.12-7.67.88-17 1.44-28.29 1.31-4.16-.1-8.41-.2-12.69-.29.47-1.55.89-2.98 1.1-4.05.08-.4.12-.79.14-1.17 0-.04.01-.09.01-.13.02-.39-.01-.77-.05-1.14v-.11a7.123 7.123 0 00-3.36-5.21c-.28-.17-.57-.33-.86-.45-.02-.01-.05-.02-.07-.03-2.41-1.01-4.52-1.89-6.41-2.71-1.27-.55-2.43-1.08-3.51-1.59 1 .83 1.99 1.65 2.96 2.44 1.06.47 2.19.95 3.39 1.46.87.37 1.78.75 2.73 1.15-2.92 2.4-5.63 2.76-10.71-.16-8.13-4.67-12.88-7.87-21.51-13.69l-.14-.09c-10.03-6.76-15.5-5.71-27.99-2.46-9.54 2.48-24.21 3.17-34.61 2.41-.05-.24-.11-.48-.15-.71-3.16-15.83-.57-33.92.3-39.09.02-.04.02-.1.01-.16zm36.89 45.43c11.5-3.04 14.1-3.21 20.97 1.42l.13.09c8.78 5.92 13.62 9.18 22.01 14 3.64 2.09 6.94 3.13 10.07 3.16h.15c3.4 0 6.22-1.23 8.64-2.96-.01.04-.01.09-.02.13-.22 1.09-.66 2.6-1.16 4.22-32.42-.67-67.23-.98-88.56-1.15-.37-.75-.73-1.49-1.08-2.23-1.83-3.85-4-8.76-5.75-13.72 10.81.53 24.4-.27 34.6-2.96zm-34.94 1.95c-.73-2.15-1.38-4.3-1.87-6.37 10.41.74 24.83.08 34.63-2.48 12.94-3.37 17.9-3.93 27.18 2.32l.14.09c8.65 5.83 13.41 9.04 21.57 13.73 5.81 3.34 8.94 2.59 12.2-.26 1.31.7 2.46 1.95 2.95 3.63.13.44.21.91.24 1.41.01.12 0 .24 0 .36-2.48 1.93-5.36 3.32-8.9 3.3-2.92-.03-6.14-1.05-9.59-3.03-8.36-4.8-13.19-8.06-21.95-13.97l-.13-.09c-3.9-2.63-6.54-3.77-10.02-3.77-2.92 0-6.43.8-11.76 2.21-10.24 2.7-23.92 3.49-34.69 2.92zm-6.83-14.79l.15-.35-.21-.17c-.08-.21-.36-1.27-.44-5.29-.08-3.96.76-5.11.76-5.12l.31-.27-.28-.32c-.02-.04-.46-.94 0-5.59.35-3.55.73-4.46.83-4.64l.29-.18-.18-.41c-.01-.01-.55-1.37.3-5.88.14-.75.36-1.38.61-1.91.46-1 1.02-1.65 1.36-1.98.08-.12.18-.21.29-.28.02-.01.05-.01.07-.03-.9 5.41-3.43 23.45-.27 39.3l.09.43c.07.34.14.68.22 1.02.48 2.07 1.12 4.23 1.84 6.39.11.34.23.68.35 1.03 1.79 5.13 4.03 10.23 5.93 14.2.28.59.57 1.19.87 1.79-.73-.01-1.44-.01-2.14-.02-6.56-.05-11.6-.09-14.63-.13-.95-20.02 3.83-31.47 3.88-31.59zm-4.74 33.84c.13-.54.27-1.02.38-1.25.16 0 74.55.65 106.63 1.31.35.01 9.76.21 14.02.32 11.45.12 20.9-.46 28.65-1.35l1.01-.12c.4-.05.78-.1 1.17-.15.34-.04.69-.09 1.02-.13 11.2-1.5 18.48-3.61 22.97-4.91l.88-.26c1.2-.35 1.98-.62 2.5-.82.41-.16.65-.28.79-.36.22 0 .72.12 1.16.33.31.14.59.33.73.54l.08.1c.51.67.9 1.25 1.21 1.76l-.36.12c-.31.11-.63.22-.95.32-7.8 2.59-18.22 4.25-28.27 5.3-.34.04-.68.07-1.02.1-.43.04-.86.09-1.29.13-.34.03-.67.07-1.01.1-2.39.22-4.73.41-7 .58-1.95.14-3.84.26-5.65.36-9.99.57-17.32.6-17.49.6l-120.13-1.9h-.21c.07-.24.12-.49.18-.72zm-.49 2.63v-.12c.01-.13.06-.43.12-.79l.45.01 1.04.02 104.9 1.66 1.04.02 13.11.21c.15 0 5.55-.02 13.37-.39 1.36-.06 2.8-.14 4.3-.22 1.72-.1 3.52-.21 5.38-.35 1.77-.13 3.58-.27 5.43-.43.63-.06 1.27-.11 1.91-.17.33-.03.67-.06 1-.1l2.32-.24c5.11-.54 10.31-1.22 15.22-2.12-4.21 1.08-9.8 2.29-17.31 3.29-.99.13-2.01.26-3.07.38-4.59.53-9.84.98-15.85 1.28-1 .05-2.01.1-3.05.14-.87.03-1.73.07-2.63.1-1.44.04-2.87.4-4.27.97-5.33-.08-10.83-.17-16.41-.25-.34-.01-.69-.01-1.03-.02-29.8-.46-89.12-1.41-91.15-1.44-6.44-.1-10.68-.19-12.98-.29-.4-.02-.73-.04-1.01-.05-.36-.02-.64-.05-.81-.08-.02-.38-.02-.81-.02-1.02zm111.63 16.35c-14.61-.24-35.19-.58-54.4-.9-27.79-.46-51.79-.86-52.44-.86-1.51 0-2.86-.42-2.95-.69-.08-.47-.49-2.8-.99-5.56-.39-2.1-.83-4.44-1.22-6.41.11.02.26.05.43.07.26.03.59.06 1.01.09.31.02.68.04 1.1.06 2.2.09 6 .16 12.64.27 2.2.04 61.46.98 90.94 1.44.34.01.68.01 1.02.02 4.99.08 9.91.15 14.7.23-1.63.94-3.16 2.18-4.53 3.58-.49.5-.94 1.03-1.38 1.57-.84 1.03-1.6 2.12-2.23 3.23-.19.33-.37.66-.53 1-.49.94-.89 1.91-1.17 2.86zM813 410.43c-.05.25-.19.75-.37 1.37-.63 2.19-1.81 6.27-1.78 9.98 0 .49-.4.78-1.74 1.26-.22.08-22.51 7.64-55.05 7.13-.24 0-2.65.03-5.43.07-3.19.04-6.87.09-8.37.11.03-.1.07-.2.1-.31.31-.96.72-1.93 1.23-2.88.18-.33.36-.67.56-1 .83-1.39 1.85-2.72 2.99-3.93.63-.67 1.3-1.29 2.01-1.87 1.29-1.06 2.69-1.95 4.14-2.57.93-.4 1.88-.69 2.83-.85.43-.07.87-.12 1.3-.13h.01c.95-.03 1.88-.06 2.8-.1 8.61-.35 15.74-.99 21.69-1.77.1-.01.2-.03.3-.04 11.42-1.52 18.38-3.53 22.89-4.84.58-.17 1.11-.32 1.62-.46 2.76-.78 4.58-1.41 5.78-1.9.37-.15.67-.28.93-.4.2-.09.38-.18.53-.26.09-.05.17-.09.24-.13.24.56.59 1.57.75 2.43.05.43.09.81.04 1.09z" fill="#0f0f10"></path></g><g><path d="M694.6 355.09c1.28 0 2.33-1.04 2.33-2.31s-1.04-2.31-2.33-2.31c-1.28 0-2.33 1.04-2.33 2.31a2.335 2.335 0 002.33 2.31z" fill-rule="evenodd" clip-rule="evenodd" fill="#fff"></path><path d="M694.6 355.59c-1.56 0-2.83-1.26-2.83-2.81s1.27-2.81 2.83-2.81 2.83 1.26 2.83 2.81-1.27 2.81-2.83 2.81zm0-4.62c-1.01 0-1.83.81-1.83 1.81s.82 1.81 1.83 1.81 1.83-.81 1.83-1.81-.82-1.81-1.83-1.81z" fill="#0f0f10"></path><path d="M699.94 364.36c1.28 0 2.33-1.04 2.33-2.31s-1.04-2.31-2.33-2.31c-1.28 0-2.33 1.04-2.33 2.31s1.05 2.31 2.33 2.31zM706.53 374.08c1.28 0 2.33-1.04 2.33-2.31s-1.04-2.31-2.33-2.31c-1.28 0-2.33 1.04-2.33 2.31s1.05 2.31 2.33 2.31zM713.52 383.32c1.28 0 2.33-1.04 2.33-2.31s-1.04-2.31-2.33-2.31c-1.28 0-2.33 1.04-2.33 2.31a2.335 2.335 0 002.33 2.31zM722.73 390.37c1.28 0 2.33-1.04 2.33-2.31s-1.04-2.31-2.33-2.31c-1.28 0-2.33 1.04-2.33 2.31s1.05 2.31 2.33 2.31zM733.56 396.52c1.28 0 2.33-1.04 2.33-2.31s-1.04-2.31-2.33-2.31c-1.28 0-2.33 1.04-2.33 2.31a2.328 2.328 0 002.33 2.31zM745.08 399.99c1.28 0 2.33-1.04 2.33-2.31s-1.04-2.31-2.33-2.31c-1.28 0-2.33 1.04-2.33 2.31s1.05 2.31 2.33 2.31zM758.08 403.44c1.28 0 2.33-1.04 2.33-2.31s-1.04-2.31-2.33-2.31c-1.28 0-2.33 1.04-2.33 2.31a2.335 2.335 0 002.33 2.31z" fill-rule="evenodd" clip-rule="evenodd" fill="#0f0f10" stroke="#0f0f10"></path></g><g><path d="M764.14 395.64c-1.87 1.14-2.75 3.63-3.56 5.66-.44 1.1-1.04 2.09-2.53 1.97-1.38-.11-2.38-1.08-2.23-2.37.24-2.05 2.09-4.35 3.32-5.87.26-.32.55-.65.92-.82.46-.2.99-.15 1.48-.08.52.08 1.04.18 1.52.41.46.23.88.6 1.08 1.1z" fill="#fff"></path><path d="M758.28 403.77c-.09 0-.18 0-.28-.01-.87-.07-1.66-.45-2.15-1.05-.43-.52-.62-1.19-.54-1.88.26-2.22 2.24-4.67 3.43-6.13.3-.37.63-.74 1.11-.96.59-.26 1.22-.2 1.76-.11.55.08 1.13.2 1.66.45.63.31 1.1.79 1.33 1.37l.15.39-.36.22c-1.59.98-2.44 3.1-3.19 4.98l-.17.44c-.45 1.14-1.14 2.29-2.75 2.29zm2.53-9.21c-.2 0-.39.03-.56.1-.28.12-.51.39-.74.68-1.12 1.38-2.99 3.68-3.21 5.62-.05.42.06.81.32 1.13.32.39.85.64 1.45.69 1.11.1 1.58-.54 2.03-1.66l.17-.43c.74-1.87 1.58-3.98 3.19-5.19-.16-.2-.37-.37-.64-.49-.39-.19-.83-.28-1.37-.36-.21-.06-.43-.09-.64-.09z" fill="#0f0f10"></path></g><g><path d="M752.67 393.35s.59.62-1.23.3c-1.82-.32-2.19.49-2.82 1.02-.54.46-.87 1.17-1.1 1.83-.28.8-.16 1.97-.72 2.67-.27.34-.7.52-1.13.56-.78.08-1.96-.21-2.49-.84-1.26-1.5.81-4.82 1.78-6.12.32-.43 1.88-.85 2.95-.85 1.08 0 3.37.57 4.76 1.43z" fill="#fff"></path><path d="M745.41 400.25c-.9 0-2.04-.35-2.61-1.03-1.66-1.97 1.18-5.96 1.77-6.75.48-.64 2.31-1.05 3.35-1.05 1.22 0 3.57.62 5.01 1.5l.1.08c.18.19.33.52.16.84-.25.47-.91.46-1.83.3-1.25-.22-1.61.14-2.06.59-.11.11-.22.22-.34.32-.49.41-.78 1.12-.96 1.62-.09.25-.14.58-.18.93-.09.63-.19 1.35-.62 1.89-.33.42-.87.69-1.48.75-.1.01-.2.01-.31.01zm2.51-7.83c-1.08 0-2.37.44-2.55.66-1.22 1.62-2.7 4.43-1.8 5.5.4.47 1.4.73 2.05.67.34-.03.63-.17.79-.38.26-.32.33-.87.41-1.4.05-.38.11-.78.23-1.13.22-.61.58-1.48 1.25-2.05.1-.08.19-.18.28-.27.46-.46 1.02-1.02 2.34-.94-1.13-.41-2.36-.66-3-.66z" fill="#0f0f10"></path></g><g><path d="M741.28 389.45c.53.32 1.74 1.23.99 1.23s-1.42-.37-2.49-.37c-1.07 0-2.06-.17-2.41.47-.63 1.16-.87 2.79-1.47 3.98-.43.85-1.14 1.7-2.24 1.62-1.57-.11-2.73-1.46-2.24-2.9.29-.86.92-2.08 1.31-2.91.41-.88.84-1.93 1.71-2.47.96-.59 2.55-.64 3.59-.27 1.5.52 3.25 1.62 3.25 1.62z" fill="#fff"></path><path d="M733.79 396.88c-.06 0-.11 0-.17-.01-.99-.07-1.88-.56-2.39-1.33a2.49 2.49 0 01-.29-2.23c.23-.68.65-1.54 1.02-2.3l.42-.89c.41-.88.87-1.88 1.79-2.45 1.16-.72 2.94-.7 4.02-.31 1.51.54 3.22 1.6 3.34 1.67.75.45 1.61 1.11 1.45 1.69-.04.14-.18.46-.72.46-.4 0-.76-.08-1.14-.17-.41-.1-.83-.2-1.35-.2-.2 0-.39-.01-.58-.01-.65-.02-1.25-.04-1.39.22-.31.56-.53 1.28-.74 1.98-.21.68-.42 1.38-.73 1.99-.77 1.53-1.78 1.89-2.54 1.89zm2.75-8.8c-.69 0-1.38.15-1.83.43-.67.42-1.05 1.23-1.41 2.02l-.43.91c-.36.73-.76 1.56-.97 2.19-.16.47-.1.95.17 1.36.34.51.94.84 1.62.88.68.04 1.28-.41 1.76-1.35.27-.53.46-1.16.66-1.83.23-.74.46-1.51.82-2.16.43-.79 1.38-.77 2.3-.74.18.01.37.01.55.01.56 0 1.01.09 1.42.18a1.74 1.74 0 00-.18-.11h-.01c-.02-.01-1.72-1.07-3.15-1.58-.39-.14-.86-.21-1.32-.21z" fill="#0f0f10"></path></g><g><path d="M731.69 384.78c.41.54.21.96-1.71.43-1.11-.31-2.16.41-2.96 1.1-.87.75-1.67 2.45-2.46 3.29-.61.65-1.8.78-2.75.52-.99-.27-1.65-1.77-1.29-2.74.68-1.81 2.74-3.47 4.4-4.46.54-.32 1.72-.7 3.54-.06 1.81.63 2.91 1.49 3.23 1.92z" fill="#fff"></path><path d="M722.78 390.74c-.38 0-.76-.05-1.11-.15-.57-.16-1.09-.62-1.42-1.27-.36-.71-.44-1.5-.2-2.13.85-2.27 3.51-4.05 4.61-4.71.47-.28 1.81-.87 3.96-.11 1.78.63 3.03 1.51 3.47 2.1.41.55.27.93.15 1.11-.31.46-1.01.49-2.4.1-.9-.25-1.81.4-2.5 1-.43.37-.88 1.06-1.31 1.73-.37.58-.73 1.12-1.1 1.52-.54.58-1.35.81-2.15.81zm3.81-7.74c-.73 0-1.2.21-1.41.34-.79.47-3.42 2.18-4.19 4.21-.13.35-.07.87.16 1.32.2.39.5.68.8.76.86.24 1.83.08 2.25-.38.32-.34.65-.85 1-1.39.47-.73.96-1.48 1.5-1.94.81-.7 2.05-1.58 3.42-1.2.51.14.85.2 1.06.22-.39-.4-1.4-1.1-2.89-1.62-.68-.24-1.24-.32-1.7-.32z" fill="#0f0f10"></path></g><g><path d="M716.84 371.57c.46.83 1.43 2.32.57 2.21-1.15-.14-1.82-1.3-2.85-1.72-1.12-.45-2.72.04-3.88.14-1.32.12-2.7 1.32-3.71 1.63-1.1.34-1.8-.22-2.25-.81-.96-1.25.17-3.04 1.24-3.79 1.48-1.03 3.01-.84 4.73-.84.96 0 2.1.1 3.6.85s2.08 1.51 2.55 2.33z" fill="#fff"></path><path d="M706.34 374.44c-.63 0-1.36-.25-2.01-1.1-.39-.51-.54-1.13-.43-1.8.18-1.13 1.02-2.17 1.79-2.71 1.41-.98 2.83-.96 4.34-.94l.68.01c1 0 2.24.11 3.82.9 1.54.77 2.22 1.57 2.75 2.53l.18.31c.64 1.12 1.01 1.83.68 2.33-.09.14-.32.36-.78.31-.81-.1-1.4-.6-1.93-1.04-.35-.29-.68-.57-1.04-.72-.69-.28-1.71-.11-2.61.03-.37.06-.72.12-1.04.15-.69.06-1.48.51-2.17.91-.51.29-.99.56-1.43.7-.25.08-.52.13-.8.13zm3.02-5.55c-1.13 0-2.14.09-3.11.77-.59.41-1.25 1.24-1.37 2.04-.06.4.02.75.24 1.04.5.65 1.02.85 1.71.63.34-.1.77-.35 1.23-.61.78-.45 1.67-.96 2.58-1.04.3-.03.63-.08.97-.14 1.03-.17 2.2-.36 3.15.03.51.21.91.55 1.31.87.36.3.71.59 1.1.73-.15-.34-.42-.81-.57-1.07l-.18-.32c-.38-.68-.87-1.4-2.33-2.13-1.75-.87-2.94-.79-4.07-.8h-.66z" fill="#0f0f10"></path></g><g><path d="M723.85 378.89c.63.71 1.71 1.92.85 1.99-1.15.1-2.19-.52-3.3-.71-1.17-.19-2.4.28-3.49.63-1.14.36-2.43 1.59-3.47 2.17-2.28 1.27-4.4-1.98-2.58-3.57 1.35-1.18 3.97-1.85 5.68-2.22.94-.2 1.98-.1 3.6.31 1.62.43 2.08.69 2.71 1.4z" fill="#fff"></path><path d="M713.38 383.77c-.9 0-1.69-.52-2.17-1.2-.69-.98-.88-2.5.31-3.54 1.44-1.25 4.06-1.93 5.91-2.33 1.01-.22 2.08-.13 3.83.32 1.69.43 2.24.72 2.96 1.54l-.38.33.4-.3c.86.97 1.45 1.71 1.21 2.31-.06.16-.24.44-.72.48-.82.08-1.55-.17-2.26-.39-.4-.13-.78-.25-1.16-.32-.9-.15-1.89.17-2.85.48l-.41.13c-.63.2-1.35.72-2.05 1.24-.46.34-.9.66-1.33.9-.44.25-.88.35-1.29.35zm5.15-6.18c-.32 0-.61.03-.88.09-1 .22-4.05.88-5.46 2.11-.73.63-.59 1.59-.15 2.21.41.58 1.22 1.07 2.16.54.37-.21.79-.51 1.22-.83.76-.56 1.55-1.14 2.34-1.38l.4-.13c1.02-.33 2.18-.7 3.32-.51.46.08.89.22 1.31.35.56.18 1.09.35 1.63.36-.21-.35-.7-.9-.91-1.14l-.03-.03c-.54-.61-.91-.83-2.46-1.23-1.07-.28-1.84-.41-2.49-.41z" fill="#0f0f10"></path></g><g><path d="M710.25 362.41c.42.85 1.15 2.3.3 2.15-.88-.16-1.68-.85-2.45-1.28-1.29-.73-2.67-.63-4.09-.58-1.32.05-2.58 1.3-3.61 1.53-2.04.47-3.07-1.64-2.56-3.14.53-1.54 1.52-1.94 2.8-2.32 2.33-.68 5.29.42 7.35 1.59 1.46.83 1.84 1.2 2.26 2.05z" fill="#fff"></path><path d="M710.66 365.07c-.06 0-.13-.01-.2-.02-.73-.13-1.39-.56-1.97-.94-.22-.14-.43-.28-.64-.4-1.11-.62-2.33-.57-3.62-.52l-.21.01c-.65.03-1.33.42-1.99.81-.53.31-1.03.6-1.52.71-.99.23-1.9-.04-2.53-.75-.72-.8-.96-2.02-.61-3.04.61-1.77 1.78-2.24 3.13-2.63 2.89-.84 6.38.86 7.74 1.63 1.5.85 1.98 1.29 2.46 2.26l-.45.22.47-.18c.58 1.17.96 2.03.57 2.55-.09.11-.28.29-.63.29zm-5.37-2.9c1.03 0 2.06.12 3.06.68.23.13.46.28.69.43.45.29.91.59 1.36.73-.12-.4-.44-1.05-.58-1.34l-.02-.04c-.36-.73-.66-1.04-2.05-1.83-2.61-1.48-5.21-2.05-6.97-1.54-1.19.35-2 .67-2.46 2-.23.68-.07 1.52.4 2.05.27.3.77.63 1.57.44.35-.08.78-.33 1.24-.6.73-.43 1.56-.91 2.45-.94l.2-.01c.38-.02.75-.03 1.11-.03z" fill="#0f0f10"></path></g><path d="M682.97 409.62a.505.505 0 01-.44-.75l.25-.44c.14-.24.44-.32.68-.18.24.14.32.44.18.68l-.25.43a.46.46 0 01-.42.26zm2.34-3.84a.5.5 0 01-.42-.77l.28-.42a.498.498 0 01.83.55l-.27.42c-.09.14-.25.22-.42.22zm2.57-3.7a.507.507 0 01-.41-.8l.3-.4c.17-.22.48-.27.7-.1.22.17.27.48.1.7l-.3.4c-.09.13-.24.2-.39.2zm2.76-3.56c-.11 0-.22-.04-.32-.11a.504.504 0 01-.07-.7l.32-.39c.18-.21.49-.24.7-.07.21.18.24.49.07.7l-.32.38c-.1.13-.24.19-.38.19zm2.94-3.4a.501.501 0 01-.37-.84l.34-.37c.19-.2.5-.21.71-.03.2.19.22.5.03.71l-.34.37c-.09.1-.23.16-.37.16zm9.86-9.22c-.15 0-.29-.07-.39-.19a.504.504 0 01.08-.7l.4-.31c.22-.17.53-.13.7.09s.13.53-.09.7l-.39.31c-.09.06-.2.1-.31.1zm3.62-2.68c-.16 0-.32-.08-.42-.22a.498.498 0 01.14-.69c.28-.19.43-.28.43-.28.24-.15.54-.08.69.16.15.23.08.54-.16.69 0 0-.15.09-.41.27-.07.05-.17.07-.27.07z"></path><g><path d="M777.27 406.17a.495.495 0 01-.04-.99l.49-.04a.503.503 0 01.08 1l-.5.04c0-.01-.02-.01-.03-.01zm4.48-.47c-.25 0-.46-.18-.5-.43a.49.49 0 01.43-.56l.49-.07c.27-.04.53.15.57.42.04.27-.15.53-.42.57l-.5.07h-.07zm4.44-.74c-.23 0-.44-.16-.49-.4-.05-.27.12-.53.39-.59l.49-.1a.5.5 0 11.2.98l-.49.1c-.04 0-.07.01-.1.01zm4.39-.99a.49.49 0 01-.48-.38c-.07-.27.09-.54.36-.61l.48-.12c.27-.07.54.09.61.36.07.27-.09.54-.36.61l-.49.12c-.04.01-.08.02-.12.02zm4.33-1.24a.5.5 0 01-.48-.35.5.5 0 01.32-.63c.3-.1.46-.15.47-.16.26-.09.55.05.64.31.09.26-.05.55-.31.64 0 0-.17.06-.49.16-.05.02-.1.03-.15.03zM776.08 402.65a.501.501 0 01-.04-1l.5-.04a.503.503 0 01.08 1l-.5.04h-.04zm4.49-.38c-.25 0-.47-.19-.5-.45-.03-.27.17-.52.45-.55l.5-.05c.29-.04.52.18.55.45.03.27-.17.52-.45.55l-.5.05h-.05zm4.48-.46c-.25 0-.47-.19-.5-.44-.03-.27.17-.52.44-.55l.5-.06c.28-.04.52.16.56.44a.51.51 0 01-.44.56l-.5.06c-.02-.01-.04-.01-.06-.01z"></path></g><g><path d="M663.23 378.08h-.5c-.28 0-.5-.22-.5-.5s.22-.5.5-.5h.5c.28 0 .5.22.5.5s-.22.5-.5.5zm-4.5 0h-.5c-.28 0-.5-.23-.5-.5s.22-.51.5-.5h.5c.28 0 .5.23.5.5s-.23.5-.5.5zm8.5 0c-.28 0-.5-.22-.5-.5s.22-.5.5-.5h.5c.28 0 .5.22.5.5s-.22.5-.5.5h-.5zm-13-.02h-.5c-.28 0-.5-.23-.5-.5s.23-.5.5-.5h.5c.28 0 .5.23.5.5 0 .28-.22.5-.5.5zm17.5 0c-.27 0-.5-.22-.5-.5s.22-.5.5-.5h.5c.27 0 .5.22.5.5s-.22.5-.5.5h-.5zm-22-.03h-.5c-.28 0-.5-.23-.5-.5s.23-.5.5-.5h.5c.28 0 .5.23.5.5s-.22.5-.5.5zm26.5-.01c-.27 0-.5-.22-.5-.5s.22-.5.5-.5h.5c.27 0 .5.22.5.5s-.22.5-.5.5h-.5c.01 0 .01 0 0 0zm4.51-.04c-.27 0-.5-.22-.5-.5s.22-.5.5-.5l.5-.01c.27-.02.5.22.51.49s-.22.5-.49.51l-.52.01zm-35.51 0l-.51-.01a.49.49 0 01-.49-.51c0-.28.22-.52.51-.49l.5.01c.28 0 .5.23.49.51a.5.5 0 01-.5.49zm40.01-.05a.5.5 0 01-.5-.49c0-.28.22-.5.49-.51l.5-.01c.24-.01.5.22.51.49s-.22.5-.49.51l-.51.01zm-44.51-.02l-.51-.01a.49.49 0 01-.49-.51c.01-.28.26-.5.51-.49l.5.01c.28 0 .5.23.49.51 0 .27-.22.49-.5.49zm49.01-.05a.5.5 0 01-.5-.49c0-.28.22-.5.49-.51l.49-.01h.01c.27 0 .5.22.51.49 0 .28-.21.5-.49.51l-.51.01c.01 0 0 0 0 0zm-53.21-.04h-.01l-.5-.01a.495.495 0 01-.49-.51c.01-.28.23-.47.51-.49l.5.01c.28.01.5.23.49.51-.01.27-.23.49-.5.49zm57.71-.04c-.27 0-.49-.22-.5-.49-.01-.28.21-.5.49-.51l.47-.01c.32.02.52.21.53.49 0 .28-.2.5-.47.51l-.5.01h-.02zm4.5-.09c-.27 0-.49-.22-.5-.49-.01-.28.21-.5.49-.51l.41-.01c.29.01.55.21.56.49.01.28-.17.5-.44.51h-.09l-.41.01h-.02zm4.51-.1c-.27 0-.49-.22-.5-.49a.49.49 0 01.49-.51l.5-.01c.29 0 .51.21.51.49a.49.49 0 01-.49.51l-.5.01h-.01zM662.71 356.1h-.5c-.28 0-.5-.23-.5-.5 0-.28.22-.5.5-.5h.5c.28 0 .5.22.5.5s-.22.5-.5.5zm4-.01c-.27 0-.5-.22-.5-.5s.22-.5.5-.5h.5c.28 0 .5.22.5.5s-.22.5-.5.5h-.5zm-8.5-.01h-.5c-.28 0-.5-.23-.5-.5s.23-.5.5-.5h.5c.28 0 .5.23.5.5 0 .28-.23.5-.5.5zm13-.01c-.27 0-.5-.22-.5-.5s.22-.5.5-.5h.5c.27 0 .5.22.5.5s-.22.5-.5.5h-.5zm-17.5-.03l-.5-.01c-.28 0-.5-.23-.5-.5s.23-.5.5-.5l.5.01c.28 0 .5.23.49.51.01.27-.22.49-.49.49zm22-.02a.5.5 0 01-.5-.49c0-.28.22-.5.49-.51l.49-.01c.27-.02.51.22.51.49 0 .28-.21.5-.49.51l-.5.01c.01 0 .01 0 0 0zm-26.5-.04l-.51-.01a.49.49 0 01-.49-.51.5.5 0 01.5-.49h.01l.5.01c.28 0 .5.23.49.51a.5.5 0 01-.5.49zm31-.03c-.27 0-.49-.22-.5-.49-.01-.28.21-.5.49-.51l.47-.01c.29 0 .52.21.52.49s-.2.5-.48.51l-.5.01c.01 0 .01 0 0 0zm-35.5-.06h-.01l-.5-.01c-.28-.01-.49-.24-.49-.51s.21-.48.51-.49l.5.01c.28.01.49.24.49.51a.5.5 0 01-.5.49zm40-.03c-.27 0-.49-.22-.5-.49a.49.49 0 01.49-.51l.42-.01c.29.02.55.21.55.49.01.28-.17.5-.45.51h-.08l-.42.01h-.01zm-44.5-.09h-.02l-.5-.02a.508.508 0 01-.49-.51c.01-.28.26-.48.51-.49l.5.02c.28.01.49.24.49.51.01.27-.22.49-.49.49zm49.01-.05c-.27 0-.49-.21-.5-.48-.01-.28.2-.51.48-.52l.49-.02c.28 0 .51.19.53.47.02.28-.19.51-.47.53l-.51.03c-.01-.01-.02-.01-.02-.01zM696.3 366.94h-.5c-.28 0-.5-.23-.5-.5 0-.28.22-.5.5-.5h.5c.28 0 .5.23.5.5 0 .28-.22.5-.5.5zm-4.5-.02h-.5c-.28 0-.5-.23-.5-.5 0-.28.22-.5.5-.5h.5c.28 0 .5.23.5.5 0 .28-.22.5-.5.5zm-4.5-.02h-.5c-.28 0-.5-.23-.5-.5 0-.28.23-.5.5-.5h.5c.28 0 .5.23.5.5 0 .28-.22.5-.5.5zm-4.5-.02h-.5c-.28 0-.5-.23-.5-.5 0-.28.22-.5.5-.5h.5c.28 0 .5.23.5.5 0 .28-.22.5-.5.5zm-4.5-.02h-.5c-.28 0-.5-.23-.5-.5 0-.28.22-.5.5-.5h.5c.28 0 .5.23.5.5 0 .28-.22.5-.5.5zm-4.5-.01h-.5c-.28 0-.5-.23-.5-.5 0-.28.22-.5.5-.5h.5c.28 0 .5.23.5.5s-.22.5-.5.5zm-4.5-.02h-.5c-.28 0-.5-.23-.5-.5 0-.28.22-.5.5-.5h.5c.28 0 .5.23.5.5s-.22.5-.5.5zm-4.5-.02h-.5c-.28 0-.5-.23-.5-.5 0-.28.22-.5.5-.5h.5c.28 0 .5.23.5.5 0 .28-.22.5-.5.5zm-4.5-.02h-.5c-.28 0-.5-.23-.5-.5 0-.28.22-.5.5-.5h.5c.28 0 .5.23.5.5 0 .28-.22.5-.5.5zm-4.5-.02h-.5c-.28 0-.5-.23-.5-.5 0-.28.23-.5.5-.5h.5c.28 0 .5.23.5.5 0 .28-.22.5-.5.5zm-4.5-.02h-.5c-.28 0-.5-.23-.5-.5 0-.28.23-.5.5-.5h.5c.28 0 .5.23.5.5 0 .28-.22.5-.5.5zm-4.5-.01h-.5c-.28 0-.5-.23-.5-.5 0-.28.22-.5.5-.5h.5c.28 0 .5.23.5.5s-.22.5-.5.5zm-4.5-.02h-.5c-.28 0-.5-.23-.5-.5 0-.28.22-.5.5-.5h.5c.28 0 .5.23.5.5s-.22.5-.5.5zm-4.5-.02h-.5c-.28 0-.5-.23-.5-.5 0-.28.22-.5.5-.5h.5c.28 0 .5.23.5.5 0 .28-.22.5-.5.5z"></path></g></svg>