<svg xmlns="http://www.w3.org/2000/svg" id="i-shoe-style-ultrarange" viewBox="632.39 343.24 175.28 81.71"><path d="M805.63 399.94s-.2-.01-.36-.04-.21-.12-.27-.2c-.54-.72-.66-.87-1.51-.87-.06 0-.25.06-.52.16-.98-1-2.17-1.97-4.47-2.14-3.1-.23-8.54-.61-9.31-.67l-3.13-.33c-16.8-1.21-26.72-5.55-26.72-5.55s-.01.05-.01.12l-18.9-10.96-7.54-5.06c-.13-.12-.25-.24-.38-.35-.97-.84-2.06-1.56-3.14-2.27-1.15-1.11-2.93-1.93-4.28-2.81-1.49-.98-2.99-1.96-4.48-2.94-1.18-.78-2.35-1.56-3.53-2.34.26-.11.58-.08.47-.44-.13-.41-1.16-.34-1.43-.73-.12-.17-.14-.39-.18-.59-.26-1.38-1.57-2.31-2.77-3.09-2.02-1.32-4.05-2.64-6.07-3.96-.4-.26-.86-.54-1.34-.46-.14.02-.29.07-.43.04-.5-.13-.29-.93-.82-1.03-.32-.06-1.05.78-1.27.97-.02.02-.05.04-.08.06l-.47-.32c-1.96-1.34-3.35-2.3-3.36-2.29l-1.87-1.49c-1.4 2-8.95 11.94-9.14 15.64-.13 2.58 1.3 5.13 3.12 7.28-1.19.93-2.41 1.87-3.65 2.76-9.1 6.48-15.54 5.54-18.33 5.31-6.16-.49-11.63-5.53-14.81-8.95-3.66-3.93-3.36-6.81-6.61-5.03-1.41.77-5.06 4.7-7.41 11.48-1.45 4.36-3.11 13.36-1.86 22.78-1.15-.01-1.97 0-2.21.06-1.2.3-.98 2.37-.98 2.37l-.07 1.25-.07.27s-1.32.62-1.7 1.26c-.38.64-.84 4.49-.74 6.36s2.27 8.43 3.96 8.9 9.31.86 15.65.95c6.19.08 12.31.18 19.45.25 3.53.03 10.16-.07 11.04.06 31.41.27 67.86-.05 70.44-.1 5.98-.13 9.05-.24 11.54-.64.38-.03.92-.09 1.7-.18l.7-.06s.56-.08 1.54-.24c2.66-.39 6.72-1.05 12.82-2.21 11.4-2.16 22.51-6.57 22.51-6.57s.12-.69.51-1.75c.62-2.32 2.15-3.66 2.3-8.29.08-2.16-1.53-3.38-1.53-3.38z" fill="#fff"></path><g fill="#191b22"><ellipse transform="rotate(-89.181 707.025 368.637)" cx="707.02" cy="368.64" rx=".72" ry=".93"></ellipse><ellipse transform="rotate(-89.181 707.076 368.79)" cx="707.07" cy="368.79" rx=".56" ry=".73"></ellipse><g><ellipse transform="rotate(-89.181 699.793 371.444)" cx="699.78" cy="371.45" rx=".72" ry=".93"></ellipse><ellipse transform="rotate(-89.181 699.844 371.596)" cx="699.84" cy="371.6" rx=".56" ry=".73"></ellipse></g></g><ellipse transform="rotate(-85.423 720.376 378.345)" cx="720.37" cy="378.34" rx=".7" ry="1.09"></ellipse><ellipse transform="rotate(-89.181 739.06 385.592)" cx="739.06" cy="385.59" rx=".78" ry="1.02"></ellipse><ellipse transform="rotate(-89.163 747.595 391.372)" cx="747.58" cy="391.38" rx=".78" ry="1.1"></ellipse><ellipse transform="rotate(-89.169 713.839 372.913)" cx="713.84" cy="372.92" rx=".83" ry="1.14"></ellipse><ellipse transform="rotate(-89.181 731.615 381.628)" cx="731.62" cy="381.63" rx=".83" ry="1.08"></ellipse><ellipse transform="rotate(-84.75 756.103 392.976)" cx="756.12" cy="392.97" rx=".78" ry="1.1"></ellipse><path d="M805.93 399.55l-.12-.09-.15-.01c-.01 0-.17-.01-.27-.05-.6-.79-.86-1.07-1.9-1.07-.09 0-.2.02-.39.08-1-.98-2.26-1.9-4.57-2.07-3.07-.22-8.45-.61-9.29-.67-1.71-.18-2.99-.31-3.15-.33-16.5-1.19-27.16-5.74-27.16-5.74l-18.23-10.57-7.52-5.04-15.23-10.22c.01-.02.03-.03.04-.06.1-.18.11-.39.03-.62-.15-.48-.65-.61-1.06-.72-.15-.04-.39-.1-.44-.15-.03-.05-.05-.17-.07-.28l-.02-.12c-.29-1.54-1.64-2.54-2.99-3.42l-6.07-3.96c-.37-.24-1-.65-1.69-.54l-.13.03c-.03.01-.06.01-.07.03-.02-.04-.05-.13-.07-.19-.09-.26-.25-.74-.81-.85-.31-.06-.6.1-.92.36-1.18-1.74-1.53-3.63-2.01-5.72-.28-1.24-1.05-2.34-2.05-3.12-1.06-.82-2.6-1.43-3.95-1.11-.76.18-1.35.73-1.62 1.46-.18.5-.15 1.07.03 1.57.2.55.55 1.04.89 1.51.6.83 1.27 1.59 2.01 2.29-.17.24-.4.56-.7.97-2.48 3.43-8.29 11.45-8.46 14.85-.13 2.58 1.18 5.08 2.9 7.22-1.06.82-2.13 1.65-3.22 2.43-8.49 6.05-14.61 5.52-17.55 5.26l-.45-.04c-4.51-.36-9.39-3.32-14.49-8.79-.77-.83-1.36-1.6-1.84-2.31-.23-.33-.44-.64-.63-.93-.03-.04-.06-.09-.09-.13-.17-.26-.33-.5-.49-.73-.21-.3-.41-.57-.62-.8-.53-.58-1.1-.9-1.91-.82.01-4.92-.89-6.74-1.94-8.08-.02-.02-.04-.04-.05-.06-1.04-1.16-2.96-1.55-4.41-1.09-2.01.64-2.83 2.38-2.92 4.38-.05 1.11.15 2.23.48 3.26.31.98.81 1.67 1.31 2.55.29.52.56 1.08.91 1.55.31.43.76 1.46 1 2.4-.25.38-.5.77-.76 1.19-1.02 1.7-2.03 3.77-2.89 6.24v.01c-.35 1.05-.7 2.37-1.03 3.88-.12.56-.24 1.16-.35 1.77-.75 4.1-1.21 9.31-.77 14.79-.04.01-.07.01-.08.02-.37.18-.44 1.07-.42 1.99-.52.01-.89.03-1.05.07-1.27.32-1.45 1.98-1.35 2.83l-.06 1.16-.01.05c-.43.22-1.35.75-1.7 1.35-.24.4-.47 1.6-.62 2.93h-.06l-.01.06c0 .02-.37 2.12-.23 4.05.09 1.2 1.2 4.62 1.25 4.77l.02.06.28-.07c.8 2.03 1.84 3.91 2.89 4.2.33.09.86.18 1.55.26l.64.62c.08.07.17.12.28.14l2.15.3c.17.02.33-.04.44-.16l.27-.3 2.9.21.51.46c.09.08.2.12.32.13l4.03.1c.16.01.3-.06.39-.18l.27-.32 1.26.02 1.25.53c.06.02.12.04.18.04l4.27.16c.14.02.27-.05.37-.14l.42-.41 1.93.15.92.52c.07.04.16.06.24.06l4.14.02c.08-.04.18-.02.26-.07l.87-.52 2.04.03.79.43c.07.04.15.06.24.06l3.76.02c.11-.02.19-.03.27-.08l.99-.62 1.49.09 1.12.58c.07.04.15.06.23.06h4.64c.11 0 .22-.04.31-.1l.86-.66c.25-.01.54-.04.87-.1l.69.66c.09.09.22.14.34.14l4.49.02c.09 0 .22-.04.31-.11l.79-.63c1.47.03 2.19.09 2.45.11l.83.58c.08.06.18.09.28.09h2.64c.1 0 .2-.03.28-.08l.82-.55 2.69.05.77.56c.08.06.19.09.29.09h1.77c.1 0 .2-.03.28-.08l.75-.51 2.78.04.63.44c.08.06.19.09.29.09h1.8c.1 0 .2-.03.29-.09l.56-.4 3.24.03.7.48c.08.06.18.09.29.09h.01l3.87-.09c.09 0 .17-.03.25-.07l.62-.37c1.13 0 2.26.01 3.38.01l.59.36c.08.05.17.07.26.07h5.9c.1 0 .2-.03.29-.09l.54-.38 2.57-.02.74.48c.08.05.17.08.27.08h4.88c.12 0 .24-.05.34-.13l.59-.54 2.63-.06.63.57c.09.08.21.13.33.13l4.6.02c.13.04.26-.05.35-.14l.81-.8c.61-.02 1.21-.05 1.8-.08l.91.79c.1.08.22.14.35.12l5.19-.18c.18-.01.34-.1.42-.26l.41-.75c.38-.01.75-.03 1.1-.05l.99.65c.09.06.2.09.31.08l5.21-.36c.13-.01.25-.07.34-.17l.84-.93c.15-.02.44-.07.85-.13l.93.7c.11.08.24.11.37.09l5.1-.75c.12-.02.23-.08.31-.17l.72-.84.9-.15.78.59c.11.09.26.12.39.09l5.1-.93c.11-.02.21-.07.28-.16l.95-1.05c.29-.07.59-.13.87-.2l.62.42c.12.08.26.1.39.07l3.88-.89c.12-.03.22-.1.29-.2l.62-.88c.25-.07.49-.14.73-.2l.37.34c.12.11.3.16.46.11l2.23-.57c.13-.03.24-.12.31-.23l.46-.78.18-.05.34.29c.13.11.3.15.46.1l2.39-.68c.18-.05.32-.2.35-.39l.04-.24.17.16c.13.12.32.16.49.11l1.83-.59c.15-.05.27-.16.32-.31l.1-.29c.05.06.12.11.2.14.13.05.27.04.39-.01l1.03-.48c.1-.05.18-.12.23-.22l.45-.86.14-.26c0-.01.01-.02.01-.03l.13-.16c.02-.09.06-.26.12-.49.08-.29.19-.67.36-1.13.19-.7.47-1.33.77-1.99.67-1.49 1.44-3.17 1.55-6.41.09-2.38-1.66-3.73-1.73-3.78zm-16.72-2.86c.99.07 6.24.44 9.25.66 1.72.13 2.76.73 3.59 1.46-.05.02-.09.03-.14.05-2.27.88-7.59 2.94-15.69 4.96-6.36 1.59-9.26 2.49-11.47 3.21-1.72.56-3.93 1.67-5.76 3.29-1.73.13-4.51.3-7.98.45-.35.01-.71.03-1.07.04-4.19.16-9.26.27-14.65.19-10.87-.16-18.84-1.33-26.55-2.46l-2.82-.41c-1.62-.23-4.73-.86-8.38-1.59 6.79-2.3 16.8-4.3 29.09-3.28 4.59.39 7.92 3.46 9.9 5.3 1.18 1.09 1.8 1.69 2.46 1.62.22-.02.43-.09.62-.18.7-.32 1.32-1.01 2.04-1.84.67-.77 1.44-1.64 2.45-2.41 1.22-.92 2.23-1.58 3.21-2.05 1.6-.76 3.16-1.03 5.52-1.11.21-.01.39-.01.58-.01.41-.01.78-.02 1.12-.02.77-.01 1.42-.01 1.96 0 2.42.02 3.51.02 9.49-1.05 7.25-1.27 12.3-4.25 13.23-4.82zm-39.36.72c-4.27 4.84-7.95 4.85-9.92 4.86h-.16c-2.17 0-5.42-1.21-6.37-1.58-4.25-1.67-15.69-6.46-28.28-12.24-1.49-.68-2.66-1.11-3.88-1.11h-.03c-1.88.01-3.94 1.03-7.88 3.2-2.84 1.57-9.04 4.09-13.38 5.2-3.93 1.01-7.75 1.25-10.43 1.26l-.25-.25c-1.71-1.69-3.19-3.15-4.21-4.24-.09-.1-.67-.6-1.54-1.34 4.53.26 7.53.43 12.62-.82 8.46-2.08 12.15-4.24 15.4-6.14 3.95-2.31 6.75-3.82 9.53-3.84 1.76-.01 4.64.8 7.2 2.03 1.71.82 2.91 1.41 4.05 1.98.94.47 1.85.92 2.96 1.45 8.44 4.06 14.76 6.84 20.34 9.23 1.28.55 2.34.81 3.27.81 1.24-.01 3.12-.99 4.51-2.11.81.4 1.56.72 2.17.91 1.64.53 3.62.92 5.62 1.2l-1.34 1.54zm2.49-1.37c3.22.4 6.3.55 7.84.6.59 1.18 1.19 2.39 1.09 2.98-.14.81-1.09 1.33-2.53 2.12-.57.31-1.22.67-1.9 1.09-1.03.5-2.08 1.19-3.33 2.14-1.09.83-1.89 1.74-2.6 2.55-.79.9-1.42 1.62-2 1.68-.25-.03-1.05-.77-1.69-1.36-1.47-1.36-3.65-3.37-6.55-4.58 2.24-.06 5.84-.55 9.93-5.19l1.74-2.03zm-72.15.68c4.42-1.13 10.72-3.7 13.62-5.29 3.79-2.08 5.75-3.07 7.4-3.08h.03c1.04 0 2.1.39 3.47 1.01 12.61 5.78 24.07 10.59 28.33 12.26.28.11.78.3 1.37.5-12.04-.65-22.09 1.59-28.76 4.05-6.84-1.38-14.98-3-19.75-3.45-3.22-.3-7.04-.55-11.43-.74a247.46 247.46 0 00-3.96-3.98c2.65-.07 6.13-.37 9.68-1.28zm79.53-5.24c.01-.16.03-.32.04-.47.13.05.28.11.45.17.09.03.19.07.3.11 3.27 1.2 12.32 4.11 25.51 5.06.03 0 .6.06 1.49.15-2.02 1.08-6.25 3.06-11.66 4.03-5.89 1.05-6.96 1.04-9.31 1.03h-1.45c-.35 0-.72.01-1.14.01l-1.12.03c-.78.02-1.46.08-2.11.16.84-.55 1.41-1.12 1.55-1.97.14-.81-.33-1.88-.95-3.12-.08-.16-.16-.33-.25-.5-.13-.26-.25-.51-.38-.77-.19-.4-.38-.8-.54-1.2-.1-.25-.19-.49-.26-.73-.07-.21-.13-.42-.17-.62-.06-.3-.04-.85 0-1.37zm-.98 1.57c.05.28.14.58.24.87.13.38.28.76.45 1.14.08.19.17.37.26.56-1.51-.06-3.96-.2-6.55-.5-1.25-.14-2.53-.32-3.76-.55-1.27-.23-2.47-.51-3.52-.85-.48-.15-1.05-.4-1.67-.68-.3-.14-.62-.3-.95-.47-2.07-1.08-4.47-2.66-6.19-4.26-2.46-2.29-8.48-5.71-12.69-6.1l-.43-.04c-3.08-.28-4.62-.42-7.17-1.83-2.24-1.25-3.16-2.4-4.06-3.52-.41-.51-.83-1.04-1.37-1.56-.71-.69-2.62-2.54-4.97-2.54-.51 0-1.04.09-1.58.29-1.83.69-5.47 1.57-6.84 1.9-.63.15-1.36.14-2.08.05l-.05.02-.04-.03c-1.16-.16-2.3-.55-2.94-.87-.26-.13-.45-.26-.51-.35-.04-.08-.1-.22-.11-.25 0-.01.02-.03.02-.05.04-.08.14-.2.29-.35.17-.17.39-.38.66-.64.19-.17.4-.37.62-.57l.13-.12.36-.33c.47-.44 3.34-2.76 5.99-4.64 1.38-.98 2.7-1.84 3.59-2.25 5.14-2.36 11.85 1.89 16.04 6.25l.35.37c1.11 1.16 2.78 2.91 4.05 3.88.58.44 1.55.58 2.88.76 1.76.24 4.16.57 6.68 1.81 3.06 1.51 7.25 4.38 12.46 8.52.07.05.11.09.17.13.15.12.27.21.32.25.35.26.76.51 1.2.76 2.69 1.53 6.82 2.95 9.35 3.75.54.17 1 .31 1.36.42-.05.58-.07 1.21.01 1.62zm-24.45-5.62c-.4.61-.96 1.59-1.41 2.95-1.04-.44-3.67-1.71-5.52-2.6-1.48-.71-2.68-1.29-3.14-1.49 0-.41.52-1.64 1.22-2.89.53.11 1.08.26 1.65.44l2.49.97c1.7.77 3.36 1.71 4.71 2.62zM701 356.57c.87.54 1.79 1.05 2.68 1.53 1.18.65 2.41 1.31 3.53 2.09 1.79 1.23 3.51 2.58 5.19 3.9-3.01-1.34-6.15-1.75-8.95-.46-2.84 1.31-9.25 6.52-9.84 7.06l-.27.25c-1.84-2.94-.7-5.2-.01-6.57 1.33-2.61 6.39-8.34 6.44-8.4l1.76-1.98.79.53c-.49.4-1 .82-1.43 1.29l-.41.44.52.32zm16.01 7.81l.01-.01 15.53 10.42 7.61 5.11 5.8 3.36 11.83 6.86c-2.87-.9-8.03-2.68-10.4-4.41-.02-.01-.06-.05-.09-.07-.08-.06-.19-.15-.36-.28-.55-.43-1.07-.85-1.6-1.25-1.96-1.52-3.77-2.86-5.42-3.99-1.75-1.2-3.3-2.16-4.68-2.91-.32-.17-.64-.35-.94-.49-2.66-1.31-5.16-1.66-6.98-1.91-1.1-.15-2.04-.28-2.41-.56-1.21-.92-2.91-2.71-3.93-3.77l-.35-.37c-1.62-1.69-3.52-3.29-5.55-4.57.19-.03.4-.09.63-.19.46-.22.91-.62 1.3-.97zm-13.44-9.6c.02-.02.07-.06.1-.09l.12-.12.02-.02.05-.05.09-.09c.1-.1.22-.21.33-.31.05-.04.1-.08.14-.11.02.04.03.08.04.12.04.12.1.27.19.42.08.09.17.19.25.27.09.06.19.11.32.14.21.05.4.02.62-.03.3-.04.65.17.99.39l6.07 3.96c1.17.77 2.34 1.61 2.56 2.77l.02.09v.01c.03.2.08.46.24.69.23.32.62.43.97.52-.03.02-.05.04-.07.06l-.26.23c-.06.05-.12.1-.18.16-.29.25-.61.52-.87.64-.24.11-.41.15-.54.14-.17-.02-.36-.16-.69-.44-.1-.09-.22-.18-.34-.28-1.91-1.51-3.88-3.06-5.94-4.49-1.16-.8-2.41-1.48-3.62-2.14-.69-.38-1.41-.77-2.09-1.17.29-.27.6-.52.9-.77.07-.06.15-.12.22-.18.11-.11.24-.21.36-.32zm-7.42-6.68c-.44-.51-.88-1.05-1.12-1.69-.27-.73-.14-1.47.51-1.94.61-.44 1.45-.38 2.13-.15 1.24.42 2.34 1.4 2.94 2.57.62 1.2.84 2.53 1.02 3.85.15 1.14.85 2.14 1.53 3.05l-.05.05-.18-.12-1.17-.81c-.7-.48-2.18-1.58-3.23-2.37-.17-.15-.35-.3-.52-.45-.68-.62-1.26-1.3-1.86-1.99zm-7.32 17.95c.16-3.1 6.05-11.25 8.28-14.31.17-.24.33-.45.46-.64 0 0 2.63 1.95 3.16 2.31l-1.69 1.9c-.21.24-5.2 5.89-6.59 8.61-1.11 2.19-1.84 4.75.13 7.73-.28.26-.49.47-.68.66-.12.13-.24.25-.33.36-.02-.02-.03-.04-.05-.06-1.6-1.99-2.81-4.27-2.69-6.56zm-36.32 4.51c.48.67 1.04 1.41 1.78 2.2 5.27 5.66 10.37 8.73 15.14 9.11l.44.04c3.06.27 9.43.82 18.22-5.44 1.11-.79 2.19-1.63 3.26-2.46.02.05.04.1.07.17.1.21.36.43.71.64.59.36 1.47.7 2.44.93 1.22.29 2.56.4 3.61.14 1.39-.34 5.07-1.23 6.96-1.94 2.2-.83 4.2.76 5.51 2.03.49.47.87.96 1.28 1.47.91 1.14 1.94 2.43 4.35 3.77 2.73 1.52 4.45 1.67 7.57 1.95l.43.04c.04 0 .08.01.12.02-.62 1.14-1.36 2.72-1.11 3.46.08.23.24.4.46.49.31.12 1.71.8 3.19 1.51 4.69 2.26 5.91 2.82 6.24 2.84l.4.03.11-.39c.43-1.46 1.02-2.53 1.42-3.15.49.36.92.71 1.27 1.03 1.71 1.59 3.99 3.12 6.03 4.22-1.18.87-2.63 1.61-3.53 1.61-.77.03-1.72-.23-2.87-.72-5.57-2.39-11.88-5.17-20.3-9.22-1.11-.53-2.01-.98-2.95-1.45-1.15-.57-2.35-1.17-4.06-1.99-2.72-1.3-5.68-2.12-7.63-2.12-3.02.02-5.93 1.59-10.02 3.98-3.2 1.87-6.82 3.98-15.14 6.03-4.94 1.22-7.73 1.06-12.34.79-.42-.02-.85-.05-1.3-.07-3.22-2.7-8.48-7-12.07-9.6-.27-.19-.53-.38-.79-.56-1.58-1.12-2.95-2.09-3.12-3.18-.08-.54.14-1.15.67-1.84 2.09-2.78 4.34-3.92 5.55-4.37zm-10.69-4.83c-.35-.82-.56-1.69-.72-2.57-.17-.89-.29-1.87.02-2.75.41-1.14 1.46-2.03 2.61-2.37 1.36-.41 2.52.34 3.27 1.45 1.32 1.95 1.68 5.69 1.77 7.03-.3.1-.61.23-.97.42-.71.39-1.98 1.55-3.38 3.46-.26-.73-.75-1.4-1.21-2.22-.47-.82-1.03-1.58-1.39-2.45zm-.72 13.3c1.09-3.15 2.45-5.65 3.72-7.49.38-.55.75-1.05 1.11-1.48.99-1.21 1.84-1.96 2.34-2.23 1.08-.59 1.63-.62 2.17-.13.2.18.41.45.64.78.16.23.33.48.53.78.09.14.2.3.3.46-1.36.54-3.65 1.8-5.79 4.6-.7.92-.98 1.77-.86 2.6.23 1.51 1.76 2.59 3.53 3.85l.78.56c3.22 2.33 7.79 6.04 11 8.71.45.38.88.74 1.27 1.06 1.39 1.17 2.33 1.98 2.47 2.12.93.99 2.24 2.3 3.76 3.79.16.16.32.31.48.48l.54.54c1.28 1.27 2.62 2.6 3.91 3.9-2.14-.09-4.39-.16-6.78-.23-.84-.42-1.57-.73-2-.8-.26-.04-2.2-.21-4.91-.43-1.17-1.19-2.94-2.86-5.61-5.14-6.1-5.2-12.56-10.07-13.69-10.83a.94.94 0 01-.21-.25c.4-2.09.86-3.88 1.3-5.22zm-1.5 6.38c1.41.99 7.59 5.67 13.46 10.67 2.09 1.78 3.6 3.17 4.72 4.25-6.39-.5-15.63-1.17-18.78-1.21-.42-5.02-.05-9.81.6-13.71zm-2.92 16.78c.11-.03.43-.04.87-.05h.77c.31 0 .65.01 1.01.01 1.56.03 3.56.08 5.34.14 2.39.07 4.85.14 6.61.16h.66c2.77.02 5.42.05 7.95.1.44.01.87.02 1.3.02 2.44.05 4.78.1 6.99.17 2.04.06 3.98.13 5.82.21l1.44.06c3.94.19 7.4.42 10.34.69 4.38.41 11.66 1.82 18.13 3.13.61.12 1.21.24 1.81.36.28.06.56.11.83.17 4 .81 7.45 1.51 9.22 1.76l2.81.41c7.74 1.13 15.75 2.3 26.68 2.47 5.3.08 10.28-.02 14.43-.18.35-.01.7-.03 1.04-.04 2.94-.12 5.41-.27 7.19-.39-.03.03-.05.06-.08.09-.16.18-.32.35-.46.54-.14.18-.27.37-.41.56l-.27.36c-2.02.18-4.13.3-6.29.38-.34.01-.68.02-1.03.04-1.34.04-2.69.08-4.05.09-11.53.12-23.85-.75-32.49-1.63-2.53-.26-4.74-.51-6.53-.75-1.87-.24-4.61-.75-7.78-1.33-1.9-.35-4-.73-6.22-1.12-.56-.1-1.12-.19-1.69-.29-5.49-.93-11.65-1.84-17.66-2.28-1.38-.1-3.09-.2-5.03-.3-.45-.02-.91-.04-1.39-.07-4.13-.19-9.12-.37-14.24-.52l-1.08-.03c-7.85-.22-15.87-.35-21.44-.34h-1.01c-1.02.01-1.95.02-2.75.03l.04-.81c-.02-.33-.02-1.65.62-1.82zm125.89 18.84c-.22.67-.37 1.12-1 1.41l-.19.09c-1.95.12-4.4.19-7.85.26-2.65.06-39.36.37-70.36.1-.39-.06-1.62-.07-3.59-.07-.82 0-1.77 0-2.84.01-1.69.01-3.39.01-4.68 0-5.03-.04-9.55-.11-13.94-.17l-5.51-.08c-6.16-.08-13.82-.47-15.49-.92-.01 0-.02 0-.03-.01-1.3-.36-3.49-6.53-3.59-8.45-.1-1.9.39-5.61.67-6.08.22-.37 1.03-.85 1.49-1.06l.21-.1.03-.11c.89-.02 1.93-.03 3.1-.04h1.02c5.65-.01 13.73.13 21.6.35l1.08.03c5.37.16 10.57.35 14.75.55.46.02.9.05 1.34.07 1.56.08 2.96.17 4.12.25 5.52.4 11.19 1.21 16.33 2.06.54.09 1.06.18 1.59.27 2.72.46 5.27.93 7.54 1.35 1.54.28 2.97.55 4.26.77 1.38.24 2.59.44 3.57.57 1.83.24 4.11.5 6.71.77 8.12.82 19.43 1.63 30.3 1.63 2.01 0 4-.03 5.96-.1.35-.01.69-.02 1.04-.04 1.99-.08 3.94-.18 5.82-.33-1.35 2.12-2.6 4.59-3.33 6.68l-.13.34zm42.65-11.67c-.32.7-.62 1.37-.81 2.1-.19.5-.31.92-.4 1.24-.03.12-.06.23-.08.32-1.7.66-11.89 4.5-22.18 6.44-3.64.69-6.82 1.25-9.54 1.7h-.01.01c-1.18.19-2.27.36-3.27.51-.95.15-1.5.24-1.5.24l-.72.06c-.78.1-1.33.15-1.7.18-.02 0-.05 0-.08.01l-1.81.12c.17-.31.27-.63.37-.94l.11-.33c.95-2.7 2.78-6.06 4.56-8.38.05-.07.11-.13.17-.2.33-.4.69-.78 1.07-1.14l.03-.03c.41-.38.84-.75 1.3-1.07 1.45-1.05 3.02-1.8 4.31-2.22 2.2-.71 5.08-1.61 11.4-3.19 8.16-2.04 13.52-4.11 15.81-5 .21-.08.39-.15.56-.22.34-.13.6-.23.65-.24.24 0 .38 0 .5.04.18.06.31.23.62.64.08.1.23.31.57.37.08.02.17.03.25.04.32.29 1.3 1.29 1.24 2.9-.08 3.06-.8 4.65-1.43 6.05z" fill="#221f1f"></path><g><path d="M730.98 372.47c-1.54-.36-1.6-1-2.77-.82-2.39.37-7.29 2.82-8.1 4.53-1.2 2.52.3 2.96 1.05 2.52 3.47-1.99 10.77-4.4 10.77-4.4s-.06-1.63-.95-1.83z" fill="#fff"></path><path d="M720.61 379.34c-.36 0-.71-.13-.98-.37-.44-.41-.8-1.27.03-3.02.91-1.9 6.02-4.42 8.47-4.8.83-.13 1.25.1 1.71.34.31.16.65.35 1.25.49 1.22.28 1.33 2.08 1.34 2.29l.02.38-.36.12c-.07.02-7.29 2.42-10.68 4.36-.25.14-.53.21-.8.21zm7.98-7.23c-.09 0-.19.01-.3.03-2.34.36-7.03 2.8-7.72 4.25-.51 1.07-.47 1.66-.26 1.85.15.14.43.12.61.02 3.05-1.75 8.9-3.78 10.48-4.32-.08-.43-.25-.93-.53-.99-.73-.17-1.15-.4-1.5-.58-.31-.16-.48-.26-.78-.26z" fill="#231f20"></path></g><g><path d="M724.29 366.96c-1.54-.36-1.6-1-2.77-.82-2.39.37-7.29 2.82-8.1 4.53-1.2 2.52.3 2.96 1.05 2.52 3.47-1.99 10.77-4.4 10.77-4.4s-.06-1.62-.95-1.83z" fill="#fff"></path><path d="M713.92 373.84c-.36 0-.71-.13-.98-.37-.44-.41-.8-1.27.03-3.02.91-1.9 6.02-4.42 8.47-4.81.83-.13 1.25.1 1.71.34.31.16.65.35 1.25.49 1.22.28 1.33 2.08 1.34 2.29l.02.38-.36.12c-.07.02-7.3 2.42-10.68 4.36-.25.15-.53.22-.8.22zm7.98-7.23c-.09 0-.19.01-.3.03-2.34.36-7.03 2.8-7.72 4.25-.51 1.07-.47 1.66-.26 1.85.15.14.43.12.61.02 3.05-1.75 8.9-3.78 10.48-4.32-.08-.43-.25-.93-.53-.99-.73-.17-1.15-.4-1.5-.58-.31-.16-.48-.26-.78-.26z" fill="#231f20"></path></g><g><path d="M746.37 382.29c-.91-.26-1.04-1.41-2.63-.94-1.17.35-3.19.28-4.26 1.64-1.05 1.33-1.39 3.38.75 2.97.88-.17 5.36-2.44 6.96-1.98.96.28.33-1.36-.82-1.69z" fill="#fff"></path><path d="M739.72 386.52c-.76 0-1.14-.34-1.34-.66-.54-.88 0-2.26.71-3.17.91-1.15 2.35-1.4 3.51-1.6.37-.06.71-.12 1-.21 1.29-.38 1.9.16 2.33.55.2.18.36.33.57.39.85.24 1.46 1.02 1.61 1.63.12.48-.07.75-.19.87s-.4.29-.88.15c-.97-.28-3.67.81-5.12 1.4-.83.34-1.32.53-1.61.59-.21.04-.41.06-.59.06zm4.71-4.78c-.15 0-.32.03-.54.09-.32.1-.7.16-1.11.23-1.04.18-2.22.38-2.89 1.24-.64.81-.85 1.7-.65 2.03.15.24.63.19.91.13.21-.04.8-.28 1.42-.53 2.18-.89 4.24-1.66 5.49-1.49-.15-.25-.44-.56-.82-.67-.43-.12-.71-.38-.96-.6-.29-.25-.49-.43-.85-.43z" fill="#231f20"></path></g><g><path d="M738.67 377.77c-.93-.16-1.19-1.34-2.72-.66-1.13.5-5.01 1.83-4.87 3.66.1 1.22-.07 1.96 2.01 1.27.86-.28 4.95-2.9 6.59-2.61.97.17.16-1.45-1.01-1.66z" fill="#fff"></path><path d="M731.85 382.8c-.29 0-.52-.06-.71-.19-.47-.32-.51-.89-.54-1.49l-.02-.31c-.15-1.96 2.97-3.25 4.65-3.94.21-.08.38-.16.52-.22 1.26-.56 1.92-.07 2.4.29.21.16.39.29.61.33.86.15 1.56.87 1.78 1.47.18.48.01.78-.1.92-.11.13-.37.33-.85.25-1.03-.19-3.56 1.17-4.93 1.9-.66.35-1.14.6-1.41.7-.6.19-1.04.29-1.4.29zm4.94-5.4c-.17 0-.37.05-.63.17l-.54.23c-1.13.46-4.13 1.7-4.03 2.93l.02.33c.02.26.04.65.11.72.01 0 .2.12 1.22-.22.2-.07.71-.34 1.26-.63 2.07-1.1 4.05-2.09 5.31-2.03-.17-.25-.5-.57-.91-.64-.45-.08-.76-.31-1.03-.51-.29-.2-.49-.35-.78-.35z" fill="#231f20"></path></g><g><path d="M750.75 385.22c.46.19 2.07 1.44 2.42 1.57.35.13.92.18.19.93-.73.76-2.86 2.35-3.46 2.85-.6.49-1.89 1.25-2.29 1.03-.4-.22-.88-.72-.77-1.78.15-1.33.28-1.64.75-2.37.48-.74 2.45-2.52 3.16-2.23z" fill="#fff"></path><path d="M747.79 392.13c-.16 0-.3-.03-.42-.1-.36-.2-1.18-.82-1.02-2.27.16-1.39.31-1.77.83-2.59.38-.6 2.59-2.9 3.76-2.42.27.11.7.41 1.39.89.37.26.89.62 1.02.67l.11.04c.24.08.63.2.74.62.11.43-.2.81-.48 1.1-.57.59-1.92 1.65-2.82 2.34-.29.23-.54.42-.69.54-.01.01-1.45 1.18-2.42 1.18zm2.76-6.45c-.46 0-2.05 1.27-2.54 2.03-.42.65-.53.87-.67 2.16-.07.63.1 1.06.51 1.29.18 0 1.11-.47 1.73-.98.15-.13.4-.32.7-.55.87-.68 2.19-1.71 2.71-2.25.03-.03.06-.06.08-.09l-.08-.03c-.22-.08-.6-.34-1.24-.79-.42-.29-.99-.69-1.19-.78.01 0 0-.01-.01-.01zm.01 0z" fill="#231f20"></path></g><g><path d="M756.45 388.07c.15.08.29.2.43.3.37.29.77.14 1.23.25.25.06.55.5.74.67.49.42-.74 1.91-.99 2.36-.37.68-1.27 1.86-1.72 1.81-.45-.06-1.49-.51-1.49-1.57s.39-1.7.54-2.56c.08-.44.31-1.46.93-1.37.12.02.23.06.33.11z" fill="#fff"></path><path d="M756.17 393.97c-.03 0-.06 0-.08-.01-.63-.08-1.93-.69-1.93-2.07 0-.75.18-1.31.33-1.81.08-.27.17-.54.22-.83.3-1.69 1.06-1.84 1.49-1.78.17.02.33.08.5.17.15.08.3.19.44.3.15.12.26.13.51.14.17.01.37.01.6.07.32.08.56.35.78.59.06.07.12.14.17.18.72.62-.06 1.76-.62 2.6-.11.16-.2.29-.25.38-.04.02-1.18 2.07-2.16 2.07zm-.12-5.51c-.04.02-.24.25-.37.96-.06.34-.15.64-.25.95-.15.48-.29.92-.29 1.52 0 .78.84 1.05 1.05 1.08.16-.07.84-.85 1.22-1.55.06-.11.17-.27.3-.47.2-.29.7-1.04.74-1.33-.06-.06-.13-.14-.2-.22-.08-.09-.23-.26-.3-.3-.09-.02-.22-.02-.36-.03-.3-.01-.67-.02-1.03-.3-.16-.12-.25-.2-.36-.26a.298.298 0 00-.15-.05z" fill="#231f20"></path></g></svg>