<?xml version="1.0" encoding="utf-8"?>
<!-- Generator: Adobe Illustrator 25.2.1, SVG Export Plug-In . SVG Version: 6.00 Build 0)  -->
<svg version="1.1" id="Capa_1" xmlns="http://www.w3.org/2000/svg" xmlns:xlink="http://www.w3.org/1999/xlink" x="0px" y="0px"
	 viewBox="0 0 146.31 47.28" style="enable-background:new 0 0 146.31 47.28;" xml:space="preserve">
<style type="text/css">
	.st0{fill:#ccc;}
</style>
<g>
	<path class="st0" d="M146.31,46.52c-3.65,0-7.31,0-11.01,0c-0.4-1.94-0.84-3.83-1.18-5.74c-0.14-0.79-0.4-1.1-1.28-1.09
		c-4.42,0.06-8.83,0.04-13.25,0.01c-0.67-0.01-0.93,0.22-1.14,0.82c-0.61,1.82-1.27,3.62-1.95,5.42c-0.09,0.24-0.4,0.58-0.61,0.58
		c-3.98,0.03-7.96,0.03-12.06,0.03c0.75-1.8,1.45-3.51,2.17-5.23c5.13-12.25,10.27-24.49,15.4-36.74c1.11-2.65,2.78-3.76,5.65-3.76
		c3.2,0,6.39,0,9.67,0c0.32,1.49,0.64,2.96,0.95,4.44c2.53,12.1,5.05,24.21,7.58,36.31c0.32,1.55,0.71,3.09,1.06,4.63
		C146.31,46.3,146.31,46.41,146.31,46.52z M131.9,30.28c-1.17-5.63-2.33-11.18-3.49-16.73c-0.05-0.01-0.09-0.02-0.14-0.03
		c-2.02,5.57-4.04,11.13-6.08,16.76C125.48,30.28,128.64,30.28,131.9,30.28z"/>
	<path class="st0" d="M98.33,0c1.45,0.27,2.92,0.49,4.36,0.82c1.31,0.3,2.6,0.73,4,1.12c-0.7,3.29-1.39,6.5-2.06,9.64
		c-1.84-0.54-3.6-1.16-5.41-1.56c-2.47-0.55-5.01-0.75-7.49-0.06c-1.01,0.28-2.03,0.82-2.82,1.5c-1.36,1.16-1.38,2.84-0.08,4.06
		c0.9,0.84,1.96,1.53,3.02,2.17c2.41,1.45,4.94,2.71,7.28,4.26c2.76,1.82,4.77,4.33,5.19,7.72c0.75,5.99-1.47,10.72-6.5,14.06
		c-3.17,2.1-6.75,3.04-10.48,3.39c-5.21,0.49-10.32-0.1-15.3-1.74c-0.33-0.11-0.66-0.25-0.98-0.38c-0.1-0.04-0.18-0.11-0.33-0.2
		c0.7-3.29,1.41-6.59,2.13-9.99c0.85,0.37,1.65,0.74,2.46,1.07c3.89,1.57,7.91,2.29,12.08,1.5c1.08-0.2,2.19-0.68,3.11-1.3
		c1.99-1.34,2.18-3.85,0.37-5.42c-1.19-1.03-2.63-1.79-3.99-2.62c-2.12-1.29-4.38-2.4-6.39-3.84c-2.57-1.86-4.44-4.33-4.79-7.62
		c-0.53-4.92,1.3-8.92,5.08-12.02c3.29-2.7,7.19-3.9,11.35-4.41C92.35,0.13,92.57,0.06,92.8,0C94.64,0,96.49,0,98.33,0z"/>
	<path class="st0" d="M55.5,0.85c-0.62,1.49-1.2,2.91-1.8,4.32C48.03,18.7,42.35,32.22,36.71,45.75c-0.27,0.64-0.6,0.81-1.25,0.81
		c-3.58-0.03-7.16-0.04-10.73,0.01c-0.76,0.01-1.01-0.26-1.18-0.94C20.51,33.81,17.43,22,14.43,10.18
		c-0.55-2.17-1.65-3.65-3.72-4.56C7.4,4.16,3.96,3.13,0.46,2.3C0.3,2.26,0.15,2.22,0,2.19c0.02-1.37,0.02-1.37,1.32-1.37
		c6.26,0,12.52,0,18.78,0c2.97,0,5.11,1.73,5.68,4.67c1.59,8.32,3.15,16.65,4.72,24.98c0.07,0.36,0.15,0.73,0.25,1.24
		c0.16-0.31,0.28-0.48,0.35-0.66c3.89-9.84,7.78-19.67,11.65-29.52c0.21-0.54,0.47-0.72,1.05-0.72c3.63,0.03,7.26,0.01,10.9,0.02
		C54.93,0.82,55.16,0.84,55.5,0.85z"/>
	<path class="st0" d="M50.75,46.55c3.27-15.29,6.52-30.47,9.78-45.68c3.96,0,7.87,0,11.86,0c-0.49,2.32-0.98,4.59-1.46,6.86
		c-2.69,12.57-5.39,25.14-8.04,37.71c-0.18,0.87-0.49,1.15-1.4,1.13c-3.25-0.06-6.5-0.02-9.76-0.02
		C51.44,46.55,51.15,46.55,50.75,46.55z"/>
</g>
</svg>
